<?xml version="1.0" encoding="UTF-8"?>
<svg width="400" height="221.82" version="1.1" viewBox="0 0 105.83 58.689" xml:space="preserve" xmlns="http://www.w3.org/2000/svg" xmlns:cc="http://creativecommons.org/ns#" xmlns:dc="http://purl.org/dc/elements/1.1/" xmlns:rdf="http://www.w3.org/1999/02/22-rdf-syntax-ns#"><metadata><rdf:RDF><cc:Work rdf:about=""><dc:format>image/svg+xml</dc:format><dc:type rdf:resource="http://purl.org/dc/dcmitype/StillImage"/><dc:title/></cc:Work></rdf:RDF></metadata><g stroke-width=".42338"><path d="m105.83 32.92-10.545 5.5704c-2.7083-3.354-5.4743-6.487-8.095-9.1187-9.1619-9.2-17.943-15.332-26.52-19.809-3.5259-1.8408-7.0014-3.354-10.366-4.6174-7.5285-2.826-14.585-4.3295-21-4.945 11.422 0.20618 23.875 2.4281 36.829 7.5776 12.954 5.1495 26.518 13.227 39.698 25.342z" fill="#f3741b"/><path d="m16.092 18.529-9.255-10.597c15.531-3.7884 28.68-2.9137 40.232 0.98435 12.099 4.0826 22.854 11.589 31.086 21.304-7.733-7.8198-17.473-13.238-28.167-15.41-2.1677-0.44031-4.3811-0.81712-6.6178-0.98647-8.8012-0.66555-18.067 0.86581-27.277 4.7054z"/><path d="m62.589 23.395-6.3816 10.632c-5.078-2.5166-16.441-8.2169-29.061-7.6504-7.6229 0.34251-15.701 2.9459-23.138 9.9896-1.3925 1.3192-2.6745 2.9192-4.0081 4.5712 2.4619-4.0111 7.0746-10.559 14.705-15.538 5.3134-3.4662 12.111-6.15 20.644-6.7071 7.5708-0.49408 16.586 0.71381 27.24 4.7029z" fill="#bcbec1"/></g><a transform="matrix(.42338 0 0 .42338 -.13633 -.003387)"><path d="m162.39 130.1q1.481 0 2.23 0.515 0.967 0.64 0.967 1.95v0.701q0 1.295-0.967 1.934-0.764 0.5-2.355 0.5h-6.192v-1.934h6.036q1.154 0 1.154-0.671v-0.39q0-0.686-1.123-0.686h-3.104q-1.45 0-2.23-0.5-0.936-0.639-0.936-1.934v-0.717q0-1.326 0.936-1.95 0.764-0.514 2.324-0.514h5.958v1.934h-5.756q-1.138 0-1.138 0.686v0.405q0 0.671 1.092 0.671zm-11.096-3.812h2.765v1.902h-2.765v7.465h-2.342v-7.465h-2.766v-1.902h2.766v-2.043h2.342zm-13.806 3.003q0-1.35 0.9-2.158 0.854-0.776 2.608-0.776h3.508v1.925h-3.275q-1.428 0-1.428 1.303v6.023h-2.313zm-6.092 4.486q0.946 0 1.35-0.528 0.357-0.481 0.357-1.443v-1.428q0-0.978-0.357-1.46-0.404-0.543-1.35-0.543h-2.329q-0.931 0-1.335 0.543-0.341 0.466-0.341 1.46v1.428q0 0.977 0.341 1.443 0.404 0.528 1.335 0.528zm0.217 1.925h-2.748q-1.77-0.016-2.778-1.025-0.994-0.978-0.994-2.747v-1.692q0-1.785 0.994-2.763 1.009-1.009 2.778-1.025h2.748q1.785 0.016 2.794 1.025 0.993 0.978 0.993 2.763v1.692q0 1.77-0.993 2.747-1.01 1.01-2.794 1.025zm-16.263-5.417v3.39h3.697q0.91 0 1.325-0.524 0.339-0.462 0.339-1.433v-1.417q0-0.986-0.339-1.448-0.416-0.54-1.325-0.54h-2.049q-0.908 0-1.309 0.54-0.339 0.462-0.339 1.433zm-2.28-0.123q0-1.771 0.986-2.742 1.001-1.001 2.758-1.016h2.418q1.756 0.015 2.757 1.016 1.002 0.97 1.002 2.742v1.68q0 1.755-1.002 2.726-1 1.001-2.742 1.017h-3.897v3.05h-2.28zm-5.215-0.061q1.482 0 2.23 0.515 0.968 0.64 0.968 1.95v0.702q0 1.295-0.967 1.934-0.765 0.5-2.356 0.5h-6.194v-1.935h6.038q1.154 0 1.154-0.67v-0.39q0-0.687-1.123-0.687h-3.105q-1.45 0-2.23-0.5-0.936-0.639-0.936-1.934v-0.717q0-1.327 0.936-1.95 0.764-0.515 2.324-0.515h5.96v1.934h-5.758q-1.139 0-1.139 0.687v0.405q0 0.671 1.092 0.671zm-19.495-2.754q0-2.008 0.973-2.996 1.004-0.988 2.933-0.988h7.169v1.945h-6.824q-1.16 0-1.584 0.55-0.33 0.47-0.33 1.646v1.067h7.844v1.93h-7.843v1.097q0 1.145 0.329 1.616 0.423 0.533 1.584 0.533h6.824v1.945h-7.169q-1.93 0-2.933-1.004-0.973-0.956-0.973-2.949zm91.116-15.512h2.761q1.341 0 1.341-1.029v-0.327q0-1.045-1.34-1.045h-2.761q-1.326 0-1.326 1.045v0.327q0 1.03 1.326 1.03zm6.41-1.512v0.655q0 1.17-0.842 1.964-0.858 0.796-2.12 0.796h-4.773v0.047q0 1.122 1.575 1.122h5.74v1.918h-5.974q-1.746 0-2.713-0.904-0.936-0.889-0.936-2.448v-3.166q0-1.17 0.827-1.965 0.842-0.81 2.199-0.81h3.976q1.357 0 2.2 0.81 0.841 0.811 0.841 1.98zm-15.191-2.886h3.376v1.922h-3.392v7.346h-2.329v-9.268q0-1.329 0.97-2.173 0.937-0.844 2.875-0.844h1.876v1.938h-1.766q-1.454 0-1.61 1.079zm-6.959 9.219v-9.256h2.337v9.256zm2.618-11.016q0 0.576-0.421 0.95-0.42 0.358-1.044 0.358-0.608 0-1.013-0.358-0.405-0.374-0.405-0.95 0-0.561 0.405-0.935 0.405-0.39 1.013-0.39 0.623 0 1.044 0.374 0.42 0.374 0.42 0.95zm-10.569 9.2h5.931v1.961h-6.324q-4.19 0-4.19-3.577v-8.757h2.338v8.411q0 1.962 2.245 1.962zm-15.847-2.381h-2.753q-1.33 0-1.33 1.048v0.329q0 1.032 1.33 1.032h2.753q1.36 0 1.36-1.032v-0.329q0-1.048-1.36-1.048zm-3.379 4.333q-1.36 0-2.19-0.798-0.829-0.798-0.829-1.97v-0.673q0-1.173 0.83-1.987 0.828-0.813 2.111-0.813h4.818v-0.032q0-1.141-1.58-1.141h-5.443v-1.909h5.662q1.752 0 2.721 0.923 0.955 0.907 0.955 2.472v3.237q0 1.22-0.876 1.987-0.814 0.704-2.221 0.704zm-10.545-7.454q-0.92 0-1.419 0.592-0.374 0.484-0.374 1.622v5.144h-2.307v-12.284h2.307v3.414q0.686-0.42 1.59-0.42h1.918q1.823 0 2.883 1.06 1.045 1.075 1.045 2.93v5.3h-2.307v-5.144q0-1.138-0.406-1.622-0.483-0.592-1.45-0.592zm-13.502 6.265q-0.951 1.123-2.448 1.123h-1.217q-1.637 0-2.635-1.045-0.905-0.967-0.905-2.698v-5.551h2.293v5.505q0 0.982 0.39 1.403 0.42 0.452 1.122 0.452h0.718q0.717 0 1.138-0.452 0.406-0.42 0.406-1.403v-5.505h2.277v5.505q0 0.982 0.39 1.403 0.42 0.452 1.122 0.452h0.718q0.717 0 1.138-0.452 0.406-0.42 0.406-1.403v-5.505h2.292v5.551q0 1.731-0.936 2.698-1.013 1.045-2.65 1.045h-1.217q-1.45 0-2.402-1.123zm-15.243-8.18h1.935q1.84 0 2.91 1.07 1.053 1.085 1.053 2.956v5.347h-2.328v-5.19q0-1.148-0.409-1.635-0.487-0.598-1.462-0.598h-1.494q-0.928 0-1.432 0.598-0.377 0.487-0.377 1.635v5.19h-2.329v-5.347q0-1.871 1.054-2.957 1.07-1.069 2.878-1.069zm-9.632 5.007h-2.706q-1.307 0-1.307 1.03v0.323q0 1.015 1.307 1.015h2.706q1.338 0 1.338-1.015v-0.323q0-1.03-1.338-1.03zm-3.321 4.26q-1.338 0-2.153-0.785-0.815-0.784-0.815-1.937v-0.661q0-1.154 0.815-1.953 0.815-0.8 2.076-0.8h4.736v-0.03q0-1.123-1.553-1.123h-5.351v-1.876h5.566q1.722 0 2.676 0.907 0.938 0.892 0.938 2.43v3.183q0 1.199-0.862 1.952-0.8 0.692-2.183 0.692zm-5.058-12.217v12.526h-2.358v-6.438h-6.788v6.438h-2.359v-12.526h2.359v4.096h6.788v-4.096z"/></a></svg>
