<?xml version="1.0" encoding="utf-8"?>
<!-- Generator: Adobe Illustrator 26.0.1, SVG Export Plug-In . SVG Version: 6.00 Build 0)  -->
<svg version="1.1" id="Layer_1" xmlns="http://www.w3.org/2000/svg" xmlns:xlink="http://www.w3.org/1999/xlink" x="0px" y="0px"
	 viewBox="0 0 500 500" style="enable-background:new 0 0 500 500;" xml:space="preserve">
<style type="text/css">
	.st0{fill:url(#SVGID_1_);}
</style>
<linearGradient id="SVGID_1_" gradientUnits="userSpaceOnUse" x1="250" y1="500" x2="250" y2="-9.094947e-13">
	<stop  offset="0" style="stop-color:#D19A26"/>
	<stop  offset="1" style="stop-color:#E3BA3C"/>
</linearGradient>
<path class="st0" d="M215.4,235.2c2.5-15.3,1.6-31.4-4.9-45.7c-2.6,1.5-4.4,6.9-7.9,4.2c-8.7-5-18.1-11-28.5-10.4
	c-10.4,0.2-21,2.2-31.3,1.5c-2.9-1.1-4.5-4.4-3.6-7.4c5-12,10.4-23.7,15.6-35.7c0.9-2.2,2.4-3.6,4.7-4.1
	c16.9-4.9,33.8-9.9,50.7-14.8c2.8-1,6.1-0.5,7.8,2.9c9.2,17.9,17.1,37.1,30,52.6c7,7.2,30.1-45.8,33.9-52.3c3-6.1,8.7-2.8,13.3-1.6
	c15.1,4.4,30.1,8.8,45.2,13.2c2.4,0.6,3.9,2,4.8,4.2c4.9,11.3,9.9,22.5,14.8,33.7c2.5,4.3-0.1,9.9-5.3,9.7
	c-6.1-0.3-12.1-0.8-18.2-1.2c-33.7-5.4-37.2,19.5-46.8,5.7c-7.4,13.5-7,30.3-5.2,45.4c2.5,1.6,13.7-12.3,16.4-14.6
	c1.3-1.4,2.8-2.3,4.6-2.9c6.5-2,13-4.2,19.5-6.3c8-1.6,14.1-7.6,20.8-11.8c3.3-3.4,9.1-3.4,10.9,1c3.3,9.7,8.1,19.2,10.4,29.2
	c0,2.8-1.1,5.1-3.3,6.8c-60.2,47.4-47,16.2-30.5,89.4c0.3,4.2-2.5,7.4-5.4,8.4c-6.8,2.5-13.6,4.9-20.3,7.4c-2.2,0.8-4.3,0.8-6.5-0.2
	c-13.5-6.4-27.1-12.7-40.6-19c-2.3-1.2-3.5-3-3.6-5.6c-0.3-4.2-0.9-8.4-1.5-12.6c-0.2-1.3,0.2-2.4,1.2-3.3
	c10.2-9.7,21-18.7,31.6-27.9c4.5-2.6,1.3-10.6-3.8-9.9c-11.7,1-23.4,2-35.2,2c-11.3,0-22.6-1.1-33.9-2c-4.8-0.4-8.2,6.4-4.2,9.5
	c5,5.4,34.8,27.1,33.2,31.9c-0.5,3.3-0.9,6.6-1.3,9.9c-0.1,3.3-0.5,6.6-3.9,8c-13.4,6.3-26.8,12.6-40.3,18.8c-1.9,1-4.1,1.3-6.1,0.5
	c-6.8-2.5-13.6-4.9-20.4-7.4c-4.4-1.4-7-6.3-5.6-10.7c4.6-16.6,9.3-33.2,13.9-49.8c0.4-2.3-0.2-4.2-1.9-5.7
	c-14.1-10.6-28.4-21-42.5-31.5c-5.9-4.1-2.9-11-0.6-16.4c2.3-6.1,4.6-12.2,6.8-18.3c1-4.2,5.8-6.7,9.7-3.9
	c14.2,12,25.9,14.1,42.9,19.7C202,220.6,208.7,233.7,215.4,235.2z M156.3,87.9C-18.1,171.3-9.4,422.2,170.9,491.7
	c-25.8-34.7-24.9-85.7,2.9-119c1.6-2.2,2.3-5.1,2.9-7.8c-9.5-3.8-19.9-6-27.8-12.9c-5.9,13-7.2,28.1-8.2,41.6
	c-16.7-44.7-1.5-71.1,9.2-113.1c-6.2-4.6-12.4-9.2-18.7-13.9c-19.9,26.2-29.3,59.3-28.7,91.9c-10.5-32.8-6.9-76.3,9-108.1
	c-13.9-19.8-2.8-35.9,4-55.7c-0.4-0.9-0.6-1.9-1.2-2.8c-33.9,36.7-51.9,87-48.2,136.8c-20.2-79.2,19.8-166.6,90.6-206.2
	C156.3,111,157.1,99.4,156.3,87.9z M368.9,266.7c-6.3,4.8-12.7,9.1-18.8,14.1c10.4,36.4,26.1,76.4,8.8,113.1
	c0.1-14.3-2.2-28.8-7.9-41.9c-7.7,7.2-18.3,9-27.7,13.1c0.7,3.1,1.6,6.3,3.7,8.8c27.4,33.6,27,83.7,2.1,118.2
	c179.9-69.9,189-321.9,14.3-403.7c0,11.4,0,22.9,0,34.3c70.8,39.7,110.6,127.1,90.6,206.3c4.2-47.4-16.2-104.3-48.5-136.8
	c-0.4,0.9-0.7,1.8-1.1,2.7c6.6,19.4,18.1,36.2,3.9,55.6c15.9,31.6,19.9,76.1,8.7,108.6C399,326.2,388.6,293,368.9,266.7z
	 M280.5,36.4c-14.4-7.7-24.3-21.5-30.4-36.4c-6.6,14.6-15.9,28.7-30.5,36.3c2,6.5,5.1,12.4,6.9,19c-8.8,0.8-17.2,2.2-25.9,3.9
	c-0.6-5.6-0.9-10.8-1.6-16.3c-17-3.1-31.2-13.3-43.8-24.4c9.4,22.2,22.1,43.4,30,65.9c0.2,7.8-0.5,15.9,0.3,23.6
	c41.4-15,87.8-14.9,129.2,0c1.1-8.9-1-18.3,0.9-27c9.8-20.8,19.7-41.6,29.4-62.4c-12.7,11-27,21.1-43.9,24.5
	c-0.7,5.4-0.7,10.9-1.8,16.2c-8.5-2.1-17-3.1-25.9-4C275.8,48.9,278.2,42.7,280.5,36.4z M296.7,397c1.8-1,2.5-3.6,0.6-4.9
	c-11.9-5.9-24-11.7-36-17.5c-7.4-3.6-14.9-3.6-22.4,0c-11.6,5.6-23.2,11.3-34.8,16.9c-2,0.6-3.3,2.9-1.7,4.6
	c15.6,10.7,27.6,28.4,48.5,28.3C269.8,424.2,282.1,406.8,296.7,397z M215.8,344c-0.1-0.3,0-0.7-0.6-0.7c-2.2,9.4-3.9,19-6,28.4
	c-0.6,2.3,1.7,3.7,3.5,4.7c42.3-20.4,32.5-20.1,74.7,0.1c3.8-2.5,3.8-3.6,2.6-7.9c-2-8.6-3.1-17.4-5.6-25.8
	c-1.9,6.2-3.3,11.8-5.4,17.9c-30.6-15-27.6-15-58.3,0C219,355.2,217.6,349.6,215.8,344z M250.1,496.5c2.4,1.2,4.3,2.3,6.8,3.5
	c0-2.7-0.9-5.1-1-7.7c0.9-1.2,5.2-4.5,5-5.5c-2.3-0.6-4.8-0.6-7.3-1.2c-1.3-2.4-2-4.6-3.6-6.9c-1.4,2.4-2.3,4.8-3.6,6.9
	c-2.5,0.6-5,0.6-7.4,1.3c1.5,2.2,3.5,3.5,5.3,5.5c-0.4,2.5-0.8,4.9-1.3,7.7C245.6,498.9,247.8,497.4,250.1,496.5z M229.9,467
	c-0.4,2.6-1.1,4.7-1.1,7.4c2.5-1,4.4-2.2,6.8-3.4c2.4,1,4.4,2.7,6.9,3.3c-0.2-2.6-1-5.1-1-7.3c1.8-2.1,3.9-3.5,5.1-5.7
	c-2.6-0.6-5.1-0.7-7.5-1.3c-1.3-2.3-2-4.6-3.6-6.7c-1.4,2.2-2.2,4.6-3.6,6.8c-2.4,0.4-4.8,0.7-7.5,1.1
	C226.2,463.6,228.3,465,229.9,467z M210.8,460.2c-1.4-2.3-2-4.7-3.7-6.8c-1.2,2.4-2.3,4.6-3.4,6.8c-2.6,0.5-5,0.6-7.5,1.3
	c1.7,2.1,3.8,3.6,5.4,5.6c-0.2,2.5-1.4,4.9-0.9,7.4c2.3-1,4.4-2.4,6.7-3.4c2.4,1.1,4.3,2.5,6.8,3.4c-0.2-2.7-1-5.1-1.1-7.8
	c1.7-1.7,3.4-3.3,5.5-5.3C215.7,460.9,213.5,460.6,210.8,460.2z M284.3,492.5c0.9-1.3,5.3-4.8,4.9-5.8c-2.4-0.4-4.8-0.7-7.2-1.1
	c-1.3-2.3-2.2-4.6-3.5-6.9c-1.5,2.3-2.3,4.7-3.7,6.9c-2.5,0.5-4.9,0.4-7.4,1.3c1.6,2,3.6,3.5,5.2,5.4c-0.2,2.5-0.9,4.9-1.1,7.6
	c2.5-1.2,4.6-2.5,6.9-3.5c2.3,1,4.4,2.4,6.8,3.4C285.2,497.2,284.3,494.8,284.3,492.5z M264.4,471.1c2.3,1,4.4,2.4,6.8,3.4
	c0.1-2.6-0.9-5-1-7.6c1.7-1.9,3.7-3.4,5.3-5.5c-2.6-0.6-5.2-0.7-7.6-1.3c-0.9-1.2-2.6-6.5-3.7-6.5c-1.3,2.1-2.1,4.4-3.4,6.5
	c-2.5,0.6-5,0.6-7.5,1.3c1.7,2.1,3.7,3.6,5.4,5.5c-0.4,2.4-0.8,4.8-1.3,7.7C260.1,473.3,262.3,472.2,264.4,471.1z M228.5,499.9
	c-0.1-2.6-0.9-5-1.1-7.5c1.6-1.9,3.6-3.4,5.2-5.3c-2.1-1-4.9-0.9-7.3-1.5c-1.4-2.1-2.1-4.5-3.6-6.8c-1.4,2.3-2.3,4.8-3.6,6.9
	c-2.6,0.4-4.8,0.5-7.3,1.2c1.4,2.2,3.5,3.5,5.2,5.4c0.2,1.5-1.7,7.1-0.8,7.6c2.1-1.1,4.3-2.2,6.6-3.4
	C224,497.6,225.9,498.9,228.5,499.9z M287.1,467c-0.2,2.5-1,4.9-1.1,7.6c2.4-1.2,4.6-2.4,6.8-3.5c1.6,0.4,5.8,3.6,6.9,3.1
	c-0.4-2.4-0.8-4.8-1.2-7.2c1.7-2,3.9-3.3,5.2-5.6c-2.6-0.6-5.1-0.6-7.5-1.3c-1.3-2.2-1.9-4.6-3.5-6.6c-1.4,2.2-2.2,4.6-3.6,6.7
	c-2.4,0.4-4.8,0.7-7.5,1.1C283.4,463.5,285.5,465,287.1,467z"/>
</svg>
