<?xml version="1.0" standalone="no"?>
<!DOCTYPE svg PUBLIC "-//W3C//DTD SVG 20010904//EN"
 "http://www.w3.org/TR/2001/REC-SVG-20010904/DTD/svg10.dtd">
<svg version="1.0" xmlns="http://www.w3.org/2000/svg"
 width="1500.000000pt" height="1316.000000pt" viewBox="0 0 1500.000000 1316.000000"
 preserveAspectRatio="xMidYMid meet">
<metadata>
Created by potrace 1.16, written by Peter Selinger 2001-2019
</metadata>
<g transform="translate(0.000000,1316.000000) scale(0.100000,-0.100000)"
fill="#000000" stroke="none">
<path d="M10698 12618 l-4227 -541 -130 -130 c-72 -72 -129 -133 -127 -135 5
-4 6547 -672 6588 -672 54 0 775 603 1276 1067 284 264 904 899 920 944 2 5
-14 9 -35 8 -21 -1 -1940 -244 -4265 -541z"/>
<path d="M1194 11264 c-538 -349 -987 -641 -997 -647 -15 -10 -32 -113 -107
-631 -50 -340 -90 -630 -90 -645 0 -18 40 -74 139 -196 76 -93 143 -171 149
-173 8 -2 9 5 0 28 -6 18 -8 64 -6 104 4 57 12 85 38 134 52 97 121 154 315
257 297 158 400 252 456 417 18 54 21 77 16 168 -9 161 -47 256 -130 324 -44
36 -145 86 -172 86 -32 0 -10 20 103 95 324 216 683 474 887 639 174 140 270
248 334 374 44 87 75 255 53 289 -6 9 -295 -173 -988 -623z"/>
<path d="M5917 11564 c-82 -69 -147 -127 -145 -129 2 -2 234 -132 516 -290
l513 -286 127 15 c619 77 1239 29 1828 -140 664 -190 1247 -514 1789 -994 59
-52 111 -94 117 -92 16 4 371 228 625 393 296 192 782 528 783 539 0 3 -1344
253 -2987 555 -1644 301 -2995 550 -3003 552 -8 1 -82 -54 -163 -123z"/>
<path d="M5500 11239 c-36 -27 -98 -70 -137 -97 -40 -26 -73 -49 -73 -52 0 -6
376 -520 393 -537 10 -10 38 -2 137 37 99 39 277 100 428 146 6 2 12 7 11 11
0 7 -625 495 -677 529 -14 10 -28 3 -82 -37z"/>
<path d="M1705 10956 c-155 -49 -329 -196 -398 -338 -71 -147 -107 -376 -88
-563 18 -180 20 -183 127 -271 419 -340 697 -866 803 -1514 32 -196 41 -307
48 -565 12 -511 -57 -1074 -203 -1650 -105 -411 -156 -553 -694 -1905 l-269
-675 -26 -190 c-14 -104 -62 -420 -105 -701 -89 -572 -97 -634 -83 -619 6 6
100 125 209 265 560 721 1233 1547 1922 2358 123 145 225 269 228 276 3 7 -11
67 -31 132 -127 416 -189 801 -202 1239 -27 976 266 1943 831 2740 81 115 245
321 321 403 l52 57 -28 470 c-15 259 -28 486 -28 507 l-1 36 -87 7 c-710 51
-962 93 -1474 245 -372 111 -724 233 -753 261 -12 11 -21 11 -71 -5z"/>
<path d="M4939 10864 c-68 -42 -126 -78 -128 -79 -1 -2 46 -139 105 -304 l109
-300 35 21 c19 12 91 54 160 94 69 40 132 79 142 86 15 12 2 39 -130 285 -81
150 -152 273 -158 273 -5 0 -66 -34 -135 -76z"/>
<path d="M7081 10654 c-912 -90 -1758 -458 -2444 -1064 -725 -641 -1215 -1507
-1391 -2460 -52 -283 -61 -398 -61 -785 1 -319 3 -380 24 -530 42 -313 97
-554 191 -835 516 -1550 1878 -2683 3497 -2910 427 -59 908 -52 1338 21 1461
247 2703 1248 3270 2635 211 515 315 1054 315 1633 -1 863 -245 1669 -725
2391 -720 1082 -1893 1783 -3189 1905 -196 18 -636 18 -825 -1z m795 -179
c587 -55 1166 -237 1660 -521 1076 -617 1815 -1656 2038 -2864 48 -261 60
-412 60 -740 1 -398 -26 -627 -114 -987 -365 -1487 -1544 -2665 -3035 -3033
-182 -45 -327 -71 -535 -97 -205 -25 -695 -25 -900 0 -695 86 -1284 301 -1840
672 -986 658 -1639 1689 -1809 2855 -60 413 -53 901 20 1310 318 1793 1794
3185 3599 3394 188 22 196 22 461 24 146 1 296 -4 395 -13z"/>
<path d="M7260 9674 l0 -537 77 7 c42 3 91 6 110 6 l33 0 0 160 0 160 133 0
132 0 115 -182 116 -182 138 -33 c77 -18 141 -31 143 -29 2 2 -58 101 -132
221 -75 119 -135 218 -133 219 2 1 30 15 63 31 73 35 153 113 184 180 35 73
40 191 11 267 -25 66 -90 143 -157 186 -92 58 -122 62 -495 62 l-338 0 0 -536z
m683 322 c70 -29 117 -122 98 -191 -14 -52 -49 -95 -95 -116 -36 -16 -68 -19
-253 -19 l-213 0 0 170 0 170 215 0 c160 0 224 -4 248 -14z"/>
<path d="M6184 9993 l-100 -36 -41 -611 c-22 -336 -39 -612 -38 -613 1 -2 54
27 118 63 l117 66 0 108 c0 155 3 166 59 191 61 27 361 129 382 129 9 0 57
-46 107 -103 l90 -103 128 21 c71 12 127 26 126 31 -2 5 -184 207 -404 449
-262 288 -408 441 -422 442 -11 1 -66 -14 -122 -34z m364 -538 c-2 -2 -60 -24
-128 -48 -69 -24 -133 -48 -142 -52 -16 -6 -18 0 -18 72 0 44 3 141 6 215 l7
135 139 -159 c77 -88 138 -161 136 -163z"/>
<path d="M8662 9488 c-110 -266 -203 -490 -207 -498 -4 -12 19 -26 100 -59 58
-24 108 -41 111 -39 6 6 401 958 406 977 2 10 -25 27 -82 52 -47 20 -95 39
-106 43 -20 6 -35 -26 -222 -476z"/>
<path d="M5260 9547 c-113 -26 -143 -51 -406 -341 -236 -260 -245 -270 -226
-285 11 -9 185 -167 387 -351 201 -184 370 -336 375 -338 11 -4 162 147 158
158 -2 4 -54 54 -116 110 -62 57 -111 106 -110 110 2 4 74 86 161 181 201 222
222 259 222 404 0 81 -4 109 -22 147 -43 95 -114 161 -204 193 -59 21 -156 26
-219 12z m133 -221 c42 -17 83 -66 98 -114 24 -82 4 -112 -271 -408 l-56 -61
-120 110 c-65 60 -120 113 -122 117 -5 12 296 334 329 352 40 21 97 23 142 4z"/>
<path d="M9486 9485 c-172 -61 -211 -268 -85 -451 18 -27 84 -102 145 -167
178 -188 222 -268 180 -332 -84 -128 -366 82 -536 398 -38 71 -44 77 -60 65
-99 -71 -139 -105 -140 -117 0 -7 14 -41 31 -75 154 -304 445 -535 675 -536
164 0 289 136 270 297 -15 125 -93 253 -271 443 -130 138 -160 191 -131 235
21 32 56 40 112 25 135 -38 327 -224 402 -389 l28 -61 74 55 c41 31 76 60 78
65 2 6 -8 35 -22 65 -143 314 -527 560 -750 480z"/>
<path d="M7260 8893 c-84 -7 -292 -43 -391 -68 -246 -63 -550 -196 -759 -333
-889 -582 -1325 -1638 -1105 -2679 99 -469 325 -888 670 -1242 400 -410 884
-657 1465 -747 157 -25 557 -25 713 -1 563 87 1036 320 1431 706 401 392 654
891 743 1461 25 165 25 558 -1 725 -71 463 -255 884 -543 1240 -44 55 -139
157 -209 226 -405 396 -914 638 -1481 704 -116 14 -409 18 -533 8z m418 -179
l30 -6 7 -132 c38 -768 199 -1399 512 -2013 l82 -163 -810 0 c-446 0 -809 3
-807 8 2 4 46 93 99 198 196 391 334 805 413 1244 42 237 60 398 82 762 5 89
8 97 27 101 35 7 332 8 365 1z m-533 -170 c-110 -1144 -529 -2076 -1265 -2814
-159 -158 -474 -430 -500 -430 -12 0 -109 236 -146 358 -126 417 -137 872 -30
1282 128 490 418 940 808 1253 257 206 580 371 880 448 80 20 261 58 265 55 1
-1 -4 -69 -12 -152z m961 96 c289 -74 567 -210 824 -403 113 -84 317 -280 407
-392 509 -629 664 -1465 413 -2227 -45 -135 -122 -318 -134 -318 -3 0 -56 41
-118 90 -516 414 -903 892 -1185 1465 -258 523 -403 1075 -468 1776 l-6 67 78
-15 c43 -8 128 -27 189 -43z m322 -2428 c104 -170 270 -391 438 -582 122 -139
386 -397 512 -500 50 -41 91 -80 91 -85 2 -26 -176 -243 -298 -366 -120 -119
-290 -259 -379 -311 l-29 -17 5 123 c13 337 -99 620 -342 862 -191 192 -432
316 -696 359 -123 20 -351 20 -466 0 -398 -70 -755 -330 -919 -669 -89 -185
-119 -328 -113 -538 2 -76 2 -138 0 -138 -10 0 -177 123 -252 186 -148 125
-327 319 -429 468 l-29 42 106 90 c352 294 709 702 942 1076 l55 88 875 -1
875 0 53 -87z m-775 -637 c574 -86 953 -622 817 -1157 -23 -88 -84 -229 -116
-265 -21 -24 -155 -70 -314 -108 -327 -77 -660 -84 -992 -19 -169 33 -377 99
-402 127 -10 12 -36 58 -57 102 -221 459 -10 1008 475 1236 188 88 381 116
589 84z"/>
<path d="M7463 5257 c-54 -80 -133 -298 -133 -368 0 -28 17 -73 59 -157 55
-111 71 -151 85 -214 10 -45 43 -37 51 12 4 22 38 104 76 182 40 82 69 155 69
173 0 104 -128 405 -173 405 -7 0 -22 -15 -34 -33z"/>
<path d="M7052 4803 c-12 -3 -40 -21 -61 -41 -91 -86 -71 -224 39 -279 52 -27
90 -29 130 -8 47 24 54 95 11 95 -30 0 -55 43 -41 69 34 64 162 5 226 -105 25
-43 55 -57 70 -33 3 6 -12 48 -35 94 -79 160 -201 234 -339 208z"/>
<path d="M7800 4793 c-64 -23 -158 -120 -199 -206 -18 -38 -30 -75 -27 -83 10
-26 35 -15 65 29 81 118 209 174 227 100 8 -32 -5 -56 -37 -63 -18 -4 -25 -14
-27 -36 -6 -65 86 -94 168 -52 65 33 90 76 90 153 0 77 -25 120 -90 153 -51
26 -106 27 -170 5z"/>
<path d="M7460 4411 c-11 -22 -27 -44 -36 -49 -23 -13 -12 -52 27 -97 38 -43
60 -44 94 -3 46 54 51 75 28 101 -11 12 -28 37 -37 55 -23 45 -50 42 -76 -7z"/>
<path d="M4924 4378 c-25 -12 -44 -48 -44 -84 0 -38 22 -82 84 -168 31 -43 56
-89 56 -101 0 -28 -35 -56 -59 -48 -57 20 -128 105 -167 201 l-21 53 -28 -23
-27 -23 18 -45 c73 -187 240 -295 325 -211 53 53 34 138 -59 263 -22 29 -43
63 -46 74 -9 29 19 57 48 48 55 -17 133 -100 158 -170 14 -39 15 -40 47 -15
l23 18 -21 48 c-60 136 -200 226 -287 183z"/>
<path d="M9926 4366 c-15 -25 -15 -25 89 -120 82 -75 100 -96 82 -96 -12 0
-93 5 -180 11 l-159 12 -24 -25 -25 -25 152 -136 153 -137 23 22 c13 12 23 24
23 27 0 4 -47 48 -105 100 -58 51 -104 95 -103 96 2 1 84 -3 183 -11 l180 -13
24 24 c14 14 23 26 20 28 -2 2 -70 63 -150 135 -81 73 -151 132 -157 132 -5 0
-17 -11 -26 -24z"/>
<path d="M9570 3995 l-23 -24 134 -145 c74 -79 139 -145 145 -145 7 -1 22 7
35 17 l22 19 -139 151 c-76 82 -142 151 -145 151 -3 1 -16 -10 -29 -24z"/>
<path d="M5243 3878 c-106 -51 -193 -96 -193 -102 0 -6 12 -19 25 -29 23 -17
26 -16 89 15 l64 31 34 -28 c18 -15 47 -40 65 -55 l31 -28 -20 -71 -21 -70 24
-20 c13 -11 27 -20 31 -21 8 0 9 5 84 262 l48 167 -25 20 c-13 11 -28 20 -34
20 -5 0 -97 -41 -202 -91z"/>
<path d="M9318 3797 l-27 -22 43 -213 c23 -117 45 -213 49 -212 4 0 10 0 15 0
4 0 15 7 24 14 16 12 16 19 4 84 l-14 72 69 50 68 50 58 -35 c32 -19 63 -35
68 -35 6 1 21 10 34 21 21 17 22 22 10 30 -32 21 -368 219 -371 219 -2 0 -15
-10 -30 -23z"/>
<path d="M5601 3588 l-113 -172 24 -18 c13 -9 27 -16 31 -15 5 1 59 78 120
171 l111 168 -23 19 c-13 11 -27 19 -31 19 -4 0 -58 -77 -119 -172z"/>
<path d="M5791 3463 l-93 -176 23 -18 c13 -10 27 -19 31 -19 4 0 38 59 76 130
l69 131 33 -185 c33 -182 34 -185 62 -197 16 -6 30 -10 32 -8 5 7 186 351 186
355 0 2 -13 10 -30 19 l-29 15 -35 -62 c-19 -35 -49 -94 -68 -131 l-34 -68
-33 182 c-32 184 -42 208 -81 209 -10 0 -50 -65 -109 -177z"/>
<path d="M9054 3628 c-26 -12 -34 -59 -34 -194 0 -52 -2 -94 -5 -94 -3 0 -55
34 -115 75 -109 76 -109 76 -139 61 l-30 -16 43 -92 c24 -51 64 -134 89 -185
l46 -91 31 11 c36 14 35 16 -26 139 -24 48 -44 92 -44 98 0 6 47 -21 104 -59
l103 -70 9 130 9 129 60 -110 c33 -61 63 -110 67 -110 15 0 58 24 56 30 -12
31 -193 360 -198 359 -3 0 -15 -5 -26 -11z"/>
<path d="M6296 3405 c-9 -35 -5 -39 63 -60 l60 -18 -56 -159 c-33 -94 -52
-163 -47 -168 5 -5 20 -11 33 -12 22 -3 27 8 78 152 30 85 55 156 57 157 1 2
29 -6 61 -17 32 -11 61 -20 66 -20 4 0 12 14 18 30 9 28 8 32 -17 41 -72 28
-286 99 -297 99 -7 0 -16 -11 -19 -25z"/>
<path d="M8377 3336 c-60 -19 -110 -36 -113 -39 -3 -3 20 -91 52 -197 l58
-192 30 6 c16 4 31 8 33 10 3 2 -7 40 -20 83 l-24 79 65 19 66 19 63 -68 63
-68 37 15 37 14 -61 64 -61 64 24 28 c42 48 27 159 -25 187 -35 18 -114 10
-224 -24z m187 -42 c21 -21 20 -57 -1 -76 -10 -9 -56 -27 -103 -40 l-85 -25
-12 31 c-24 64 -21 69 75 98 106 32 107 32 126 12z"/>
<path d="M7962 3245 c-85 -13 -156 -25 -158 -28 -5 -5 46 -388 52 -396 2 -2
81 7 175 20 l171 23 -6 30 c-4 16 -8 31 -10 33 -2 3 -64 -4 -137 -15 -74 -11
-135 -19 -135 -18 -1 0 -4 24 -8 53 -7 58 -9 56 77 68 40 5 47 10 47 28 0 42
-11 47 -75 37 -68 -11 -77 -5 -73 50 l3 35 124 17 c68 10 126 20 129 22 6 7
-9 66 -16 65 -4 -1 -76 -12 -160 -24z"/>
<path d="M7455 3211 c-105 -27 -165 -104 -165 -211 0 -63 18 -106 61 -147 83
-79 237 -84 310 -10 27 26 29 34 29 103 l0 74 -27 0 c-16 0 -58 3 -95 7 l-68
6 0 -37 0 -36 66 0 66 0 -7 -27 c-10 -42 -38 -65 -88 -70 -60 -7 -110 11 -147
53 -59 68 -33 176 53 214 67 31 126 23 175 -22 l22 -21 25 23 c24 22 24 24 7
43 -42 47 -150 76 -217 58z"/>
<path d="M4510 10640 c-19 -10 -70 -34 -113 -51 -72 -31 -77 -35 -73 -58 3
-15 28 -199 57 -411 28 -212 52 -387 54 -388 2 -2 41 29 87 68 46 40 118 100
161 133 42 33 77 65 77 71 0 5 -41 155 -91 333 -99 352 -93 339 -159 303z"/>
<path d="M5093 915 c-135 -24 -235 -87 -274 -170 -25 -55 -25 -154 0 -203 51
-98 120 -129 401 -178 118 -20 221 -41 228 -47 20 -16 15 -75 -7 -87 -26 -13
-316 -13 -342 0 -14 8 -19 21 -19 50 l0 40 -145 0 -145 0 0 -37 c1 -84 72
-181 165 -227 83 -40 172 -56 326 -56 307 0 468 97 469 283 0 75 -17 115 -70
160 -61 52 -123 72 -348 112 -108 19 -207 40 -219 45 -17 7 -23 18 -23 43 0
54 9 57 181 57 174 0 189 -5 189 -61 l0 -29 146 0 146 0 -6 38 c-13 68 -55
141 -107 182 -108 85 -342 122 -546 85z"/>
<path d="M7276 915 c-247 -47 -386 -211 -386 -455 0 -236 130 -393 368 -446
92 -20 350 -15 423 9 116 38 195 95 249 179 55 85 74 164 68 291 -4 89 -9 113
-36 170 -56 121 -158 204 -297 241 -87 24 -291 29 -389 11z m374 -240 c43 -22
52 -66 48 -237 -3 -146 -3 -148 -31 -175 l-27 -28 -169 -3 c-190 -4 -226 2
-255 42 -19 25 -21 41 -21 185 0 168 7 199 49 219 12 6 98 11 199 11 140 1
184 -2 207 -14z"/>
<path d="M10435 921 c-195 -32 -306 -117 -322 -249 -13 -113 48 -208 160 -250
30 -12 149 -38 264 -58 114 -20 214 -41 221 -47 20 -16 15 -75 -7 -87 -11 -5
-85 -10 -168 -10 -171 0 -193 7 -193 66 l0 34 -146 0 -147 0 7 -46 c14 -104
91 -192 204 -234 85 -32 142 -40 286 -40 148 0 241 16 319 55 64 33 91 57 125
115 22 37 27 57 27 115 0 86 -25 133 -94 177 -64 40 -137 60 -351 98 -102 18
-191 37 -198 43 -8 6 -12 26 -10 51 l3 41 164 3 c112 2 168 -1 177 -9 8 -6 14
-27 14 -45 l0 -34 145 0 145 0 0 23 c0 45 -32 116 -72 162 -75 86 -185 123
-378 130 -69 2 -148 0 -175 -4z"/>
<path d="M3930 460 l0 -450 400 0 400 0 0 110 0 110 -255 0 -255 0 0 65 0 65
235 0 235 0 0 100 0 100 -235 0 -235 0 0 65 0 65 255 0 255 0 0 110 0 110
-400 0 -400 0 0 -450z"/>
<path d="M5850 460 l0 -450 145 0 145 0 0 89 0 89 203 4 c194 3 204 4 259 30
121 57 194 161 205 296 12 147 -60 281 -187 347 -78 40 -123 45 -452 45 l-318
0 0 -450z m650 184 c6 -14 10 -63 10 -110 0 -125 1 -124 -205 -124 l-165 0 0
130 0 130 175 0 175 0 10 -26z"/>
<path d="M8110 460 l0 -450 145 0 145 0 0 130 0 130 78 0 78 0 94 -130 94
-130 163 0 c137 0 163 2 163 15 0 16 -91 127 -176 215 l-54 55 48 22 c62 28
119 85 148 148 19 39 24 67 24 125 -1 113 -47 201 -138 259 -91 57 -123 61
-484 61 l-328 0 0 -450z m638 198 c7 -7 12 -41 12 -84 0 -105 3 -104 -196
-104 l-164 0 0 100 0 100 168 0 c117 0 172 -4 180 -12z"/>
<path d="M9090 790 l0 -120 165 0 165 0 0 -330 0 -330 150 0 150 0 0 330 0
330 165 0 165 0 0 120 0 120 -480 0 -480 0 0 -120z"/>
</g>
</svg>
