<?xml version="1.0" encoding="utf-8"?>
<!-- Generator: Adobe Illustrator 26.0.1, SVG Export Plug-In . SVG Version: 6.00 Build 0)  -->
<svg version="1.1" id="Layer_1" xmlns="http://www.w3.org/2000/svg" xmlns:xlink="http://www.w3.org/1999/xlink" x="0px" y="0px"
	 viewBox="0 0 500 500" style="enable-background:new 0 0 500 500;" xml:space="preserve">
<style type="text/css">
	.st0{fill:#2C384B;}
	.st1{fill:#7DC1EA;}
	.st2{fill:#5471B6;}
	.st3{fill:#3697D3;}
	.st4{fill:#D14196;}
	.st5{fill:#D82E3C;}
	.st6{fill:#DC7A2F;}
	.st7{fill:#EEDE3B;}
	.st8{fill:#BDD642;}
</style>
<g>
	<path class="st0" d="M250,500c-13-6.1-25.8-12.3-38.1-19.3c-17-9.6-33.2-20.2-48.6-32.2c-31.8-25-57.9-54.9-77.6-90.4
		c-0.3-0.5-0.6-1-0.9-1.5c-0.1-0.1-0.2-0.2-0.5-0.5c-2.2,0-4.6,0-7,0c-1.5,0-2.9-0.3-4.4-0.4c-0.6,0-1.1,0-1.7,0
		c-1.3,0.1-2.6,0.3-3.9,0.4c-11.2,0-22.4,0-33.6,0c-3.9,0-7.5-1.1-10.6-3.4c-5.9-4.4-8.4-12.8-4.9-20.2c0.5-1,1-1.9,1.6-2.8
		c10.7-18,21.4-36,32.1-54c0.2-0.3,0.3-0.6,0.5-0.8c0.8-1.1,0.9-2.2,0.6-3.5c-1.4-6.2-2.9-12.4-4.1-18.6c-1.5-7.8-2.9-15.7-4.3-23.6
		c-1-6.1-1.9-12.2-2.8-18.3c-0.7-4.7-1.2-9.5-1.7-14.2c-0.5-4.2-0.9-8.4-1.3-12.5c-0.4-5.2-0.8-10.3-1.1-15.5
		c-0.6-10-0.9-20.1-0.8-30.2c0.1-8.8,0.3-17.6,1.1-26.4c0.5-6.1,1.1-12.2,2.1-18.2c0.8-4.5,1.8-9,2.7-13.6c0.3-1.5,0.7-3,1-4.5
		C46.1,74.6,238.1,4,250.1,0c68.5,25.1,137.2,50.4,206,75.6c0.7,3.3,1.4,6.5,2.1,9.7c1.2,5.6,2.2,11.3,2.9,17
		c0.5,4.3,0.9,8.7,1.1,13c0.4,6.5,0.7,13,0.9,19.5c0.1,3.7,0,7.4,0.1,11.1c0,0.7,0.1,1.4,0.1,2.3c0.9,0,1.7,0.1,2.5,0.1
		c1.6,0.1,3.3,0.1,4.9,0.5c10.5,2.5,15.9,14.2,10.9,23.8c-0.4,0.7-0.8,1.4-1.2,2.1c-7,11.8-14.1,23.7-21.1,35.5
		c-0.8,1.4-1.3,2.7-1.5,4.4c-3.6,25.6-8.5,51-15.7,75.9c-5.7,19.5-12.7,38.5-21.8,56.6c-12.4,24.5-27.8,46.9-46.4,67.1
		c-15.7,17.1-33.3,32.2-52.3,45.5c-18.1,12.7-37.1,23.6-57,33.2C259.6,495.4,254.9,497.7,250,500z M262.6,267.9c2.2-0.4,4-0.6,5.8-1
		c27.7-6.1,45-32.9,39.6-60.2c-3.5-17.8-16.4-32.7-33.6-38.7c-5.9-2-12-2.9-18.2-2.9c-34.4,0-68.8,0-103.1,0c-0.6,0-1.2,0-1.7,0
		c-0.4,0-0.8-0.1-1.2,0.6c2.7,4.7,5.6,9.5,8.5,14.3c2.8,4.8,5.6,9.5,8.5,14.2c2.9,4.8,5.7,9.6,8.6,14.4c1.1,0,2.1,0,3.1,0
		c24.7,0,49.3,0,74,0c0.7,0,1.5,0,2.2,0c3,0.2,5.8,1.1,8.1,3.2c4.6,4.1,4.7,11.8-0.6,15.8c-1.3,1-2.8,1.7-4.4,2.2
		c-1.5,0.4-3.1,0.5-4.7,0.5c-20.6,0-41.2,0-61.8,0c-0.9,0-1.8,0-2.7,0.1c0.1,1,0.6,1.7,1,2.3c20.7,34.9,41.4,69.7,62.1,104.5
		c1.5,2.5,1,2.2,4.1,2.2c15.3,0,30.5,0,45.8,0c0.6,0,1.2,0,1.7,0c0.4,0,0.8-0.1,1.3-0.2c-1.5-2.9-3.2-5.4-4.7-8
		c-1.5-2.6-3.1-5.2-4.7-7.9c-1.6-2.6-3.1-5.2-4.7-7.9c-1.6-2.6-3.1-5.2-4.7-7.9c-1.6-2.7-3.2-5.4-4.8-8.1c-1.6-2.6-3.1-5.2-4.7-7.9
		c-1.6-2.6-3.1-5.2-4.7-7.9c-1.6-2.6-3.1-5.2-4.7-7.9C265.8,273.4,264.2,270.9,262.6,267.9z M388.1,209.3c-0.2,1-0.8,1.8-1.3,2.6
		c-19.7,33-39.4,65.9-59.1,98.9c-5.2,8.8-10.5,17.5-15.7,26.3c-0.4,0.7-1,1.3-1,2.1c0.2,0.2,0.2,0.2,0.3,0.3c0.1,0,0.2,0.1,0.2,0.1
		c0.4,0,0.8,0.1,1.2,0.1c16.6,0,33.1,0,49.7-0.1c0.1,0,0.2-0.1,0.2-0.1c0.1,0,0.1-0.1,0.4-0.2c0.4-0.6,0.8-1.4,1.3-2.1
		c31.2-52.5,62.5-104.9,93.7-157.4c2.6-4.3,5.1-8.6,7.7-13c0.3-0.5,0.8-0.9,0.3-1.6c-0.8,0-1.7,0-2.6,0c-55.5,0-111,0-166.4,0
		c-0.7,0-1.3,0-2,0c-0.3,0-0.5,0.2-1.1,0.4c3.7,2.8,6.9,5.6,9.8,8.7c2.9,3.2,5.5,6.6,7.7,10.3c2.3,3.8,4.1,7.7,5.5,11.9
		c1.4,4,2.2,8.2,3,12.5c1,0,1.9,0.1,2.8,0.1c8.8,0,17.6,0,26.5,0c12,0,24.1,0,36.1,0C386.2,209,387.1,208.8,388.1,209.3z
		 M443.2,86.8c-1-0.4-1.6-0.7-2.3-0.9c-3.3-1.2-6.6-2.4-10-3.7C371.5,60.4,312,38.6,252.6,16.8c-3.1-1.1-2-1.2-5.2,0
		c-13.9,5.1-27.8,10.2-41.7,15.3C156.9,50,108.1,67.9,59.3,85.8c-0.8,0.3-1.5,0.6-2.3,0.9c-0.2,0.4-0.4,0.8-0.4,1.2
		c-1.3,6.1-2.5,12.3-3.2,18.5c-0.9,8.1-1.5,16.3-1.7,24.4c-0.5,15.9-0.1,31.8,1.3,47.7c0.5,6.2,1,12.5,1.7,18.7
		c1,8.1,2.1,16.2,3.2,24.3c1.4,9.9,3.2,19.7,5.2,29.4c0.3,1.3,0.6,2.5,0.9,4.1c0.4-0.6,0.7-0.8,0.9-1.2c2.8-4.7,5.6-9.5,8.5-14.2
		c0.5-0.8,0.7-1.6,0.5-2.6c-0.1-0.5-0.2-1-0.2-1.5c-0.7-4.3-1.6-8.6-2.2-12.9c-1.1-7.6-2.2-15.2-3.1-22.8
		c-0.9-7.3-1.7-14.6-2.3-21.9c-0.6-8.3-1.1-16.6-1.4-24.9c-0.5-12-0.2-24.1,0.6-36.1c0.4-6.3,1-12.5,2.1-18.7
		c0.3-2.1,0.3-2.1,2.4-2.9c0.1,0,0.2,0,0.2-0.1c9.4-3.5,18.9-6.9,28.3-10.4c45.2-16.6,90.4-33.2,135.7-49.8
		c4.8-1.8,9.6-3.5,14.4-5.3c1.2-0.4,2.2-0.5,3.3,0c0.4,0.2,0.8,0.3,1.2,0.4C287.2,43,321.6,55.6,356,68.2c24.7,9,49.3,18.1,74,27.2
		c0.8,0.3,1.5,0.6,2.2,0.9c0.1,0.5,0.2,0.8,0.2,1.1c0.5,4.2,1.1,8.3,1.6,12.5c0.8,7,1.1,14,1.3,21c0.1,5.1,0.1,10.2,0.1,15.3
		c0,0.7-0.2,1.5,0.5,2.3c1.9,0,4,0.1,6,0c2.1-0.1,4.2,0.3,6.4-0.3c0-0.9,0.1-1.7,0.1-2.6c0.1-15.1-0.4-30.2-2.7-45.1
		C445.1,96,444.1,91.5,443.2,86.8z M437.4,247.6c-0.9,0.4-1.1,1.2-1.5,1.8c-6.7,11.2-13.4,22.5-20.1,33.8c-0.7,1.2-1.3,2.5-1.7,3.8
		c-4.1,13.4-9,26.5-14.8,39.3c-11.4,24.9-26.2,47.6-44.7,67.9c-13,14.3-27.4,27.1-43,38.6c-19,14-39.2,25.8-60.4,36.1
		c-0.4,0.2-0.9,0.4-1.3,0.6c-0.7-0.3-1.3-0.6-1.8-0.9c-6.9-3.6-13.8-7-20.6-10.7c-21.9-12.1-42.4-26.1-61-42.7
		c-17.5-15.6-32.9-33.1-45.8-52.7c-1.2-1.8-2.4-3.6-3.5-5.4c-0.7-1.2-1.6-1.5-2.9-1.2c-1.2,0.2-2.4,0.3-3.7,0.3c-2.5,0-4.9,0-7.4,0
		c-0.5,0-1.1-0.2-1.7,0.4c0,0.8,0.6,1.4,1,2.1c11.2,18.9,24.5,36.1,39.9,51.8c14.5,14.8,30.5,27.9,47.6,39.6
		c18.6,12.7,38.3,23.5,58.7,33c0.4,0.2,0.9,0.3,1.3,0.4c0.4-0.2,0.7-0.3,1-0.4c9.1-4.4,18.2-8.8,27.1-13.7
		c23.4-12.9,45.4-27.8,65.3-45.6c30.4-27.2,53.9-59.5,70.2-97c10.9-25,18.2-51.2,23.6-77.9C437.4,248.6,437.4,248.2,437.4,247.6z
		 M136.9,165.6c-0.4,0.6-0.8,1.1-1.1,1.6c-34,57.1-68,114.3-102,171.4c-0.1,0.1,0,0.3,0,0.6c0.8,0.4,1.7,0.2,2.6,0.2
		c9.6,0,19.1,0,28.7,0c0.4,0,0.8,0,1.2,0c1,0.1,1.7-0.3,2.2-1.2c1.3-2.3,2.7-4.5,4-6.8c26.8-45,53.6-90.1,80.4-135.1
		c0.4-0.7,0.8-1.4,1.3-2.2c-5.6-9.4-11.2-18.7-16.7-28C137.5,166,137.2,165.8,136.9,165.6z M111.1,339.5
		c21.7-36.4,43.3-72.7,64.8-108.8c-1.1-2.3-15.9-27.3-17.2-28.9c-0.3,0.5-0.7,0.9-1,1.4c-26.9,45.2-53.8,90.4-80.6,135.5
		c-0.1,0.1,0,0.3,0,0.5c0.3,0.1,0.6,0.2,0.9,0.2C88.9,339.5,99.9,339.5,111.1,339.5z M297.4,100.4c0-5.2-0.6-11.5-1.5-15.7
		c-0.9-4.5-2.2-8.8-4.4-12.8c-1-1.8-2.2-3.5-3.8-4.8c-2.4-2-5.1-2.9-8.2-2.7c-2.9,0.3-5.6,1.3-8,3.1c-2.5,1.9-4.3,4.3-5.7,7.1
		c-0.9,1.8-1.7,3.7-2.5,5.6c-1.5,3.6-3,7.3-4.5,11c-0.4,1.1-0.9,2.1-1.5,3.1c-2.6,4.3-7.6,5.3-11.8,2.5c-1.5-1-2.7-2.2-3.7-3.6
		c-1.1-1.5-2-3-3-4.5c-1.9-2.8-3.7-5.7-5.7-8.4c-1.3-1.8-2.9-3.4-4.5-4.9c-2.1-1.9-4.7-2.9-7.7-2.9c-4.5,0-8.1,1.7-11,5.1
		c-1.7,2-2.9,4.4-3.9,6.8c-1.5,3.6-2.3,7.4-2.8,11.2c-0.6,4.7-0.6,9.4,0,14.1c0.8,6.3,2.7,12.4,4.9,18.3c0.4,1.1,0.9,2.2,1.5,3.1
		c0.6,0.9,1.3,1.7,2.2,2.3c2.7,1.9,7.2,0.4,7.1-3.7c0-1.1-0.1-2.3-0.4-3.4c-0.6-2.3-1.3-4.6-1.9-6.9c-1-3.2-2-6.5-2.5-9.8
		c-0.2-1.6-0.2-3.3,0.2-4.9c0.5-2.4,3.5-3.9,5.8-1.8c0.8,0.7,1.5,1.6,2.1,2.5c0.9,1.4,1.7,2.8,2.5,4.2c2.7,4.5,5.2,9.2,8,13.6
		c4.4,6.8,10.7,9.5,18.7,8.2c5.7-1,10-4.1,12.5-9.4c0.8-1.7,1.4-3.5,2-5.3c1.7-5.3,3.2-10.6,5.4-15.6c0.9-2,1.9-3.8,3-5.7
		c0.9-1.5,2.1-2.8,3.5-3.8c3.1-2.3,6.7-1.1,7.8,2.6c0.3,0.9,0.5,1.9,0.5,2.9c0,2.9-0.1,5.8-0.2,8.6c-0.2,2.7-0.5,5.4-0.7,8.1
		c-0.1,1.2,0,2.5,0.4,3.7c0.8,2.3,2.5,3.4,5,3.2c1.2-0.1,2.2-0.7,3-1.5c1.4-1.4,2.1-3.1,2.5-5C296.9,109.4,297.2,104.5,297.4,100.4z
		 M197.5,267c-1.6-3.3-16-27.3-17.3-28.7c-0.2,0.3-0.4,0.5-0.6,0.7c-19.8,33.3-39.6,66.6-59.4,99.9c-0.1,0.1,0,0.3,0.1,0.6
		c0.5,0,1.1,0.1,1.7,0.1c10.1,0,20.3,0,30.4,0c0.6,0,1.3-0.1,2-0.2C168.7,315.2,183.1,291.2,197.5,267z M201.8,274.5
		c-0.6,0.9-1.1,1.7-1.6,2.5c-8.9,14.9-17.7,29.7-26.5,44.6c-3.2,5.3-6.3,10.6-9.5,15.9c-0.3,0.5-0.9,1-0.6,1.9
		c0.5,0,1.1,0.1,1.7,0.1c10.2,0,20.4,0,30.7,0c0.6,0,1.1-0.1,1.7-0.2c7.2-12.1,14.3-24.1,21.6-36.2c-5.6-9.4-11.2-18.7-16.8-28.1
		C202.3,274.9,202.1,274.7,201.8,274.5z M223.5,310.8c-0.7,1.1-1.3,2.1-1.9,3.1c-4.7,7.8-9.4,15.7-14,23.5c-0.3,0.6-0.9,1.1-0.8,1.9
		c1.9,0.3,28.4,0.4,32.6,0.2c0.3,0,0.6-0.1,0.9-0.2c-0.7-2-8.7-15.7-15.9-27.3C224.2,311.6,223.9,311.3,223.5,310.8z M196.4,396.6
		c0.1-0.8,0.1-1.5,0.2-2.1c0-2.4,0-4.8,0-7.2c0-2.9,0.1-5.8-0.1-8.6c-0.2-3.9-2.1-6.4-5.9-7.2c-4.4-1-8.8-1.1-12.7,1.7
		c-1-0.5-1.9-1.2-2.9-1.5c-3.6-1-7.2-1.1-10.7,0c-2.9,0.9-4.7,2.9-5.1,6.1c-0.1,0.7-0.2,1.3-0.2,2c0,5.2,0,10.4,0,15.6
		c0,0.5,0.2,0.9,0.3,1.4c1.7,0.1,3.2,0.2,4.9-0.1c0-0.9,0.1-1.8,0.1-2.6c0-4,0-8.1,0-12.1c0-1,0-2,0.1-3c0.2-1.6,1.2-2.7,2.8-3.1
		c1.6-0.4,3.2-0.4,4.9,0c1.7,0.4,2.7,1.5,2.9,3.3c0.1,0.7,0.1,1.5,0.1,2.2c0,4.4,0,8.9,0,13.3c0,0.6-0.2,1.3,0.5,1.9
		c1.5,0.1,3,0.2,4.5-0.1c0.6-0.8,0.4-1.7,0.4-2.5c0-4.1,0-8.2,0-12.4c0-0.9,0-1.8,0.1-2.7c0.1-1.6,1-2.6,2.5-3
		c1.8-0.5,3.6-0.6,5.4,0c1.5,0.4,2.4,1.4,2.6,2.9c0.1,1.2,0.2,2.5,0.2,3.7c0,4,0,7.9,0,11.9c0,0.7-0.2,1.5,0.5,2.2
		C193.2,396.6,194.7,396.6,196.4,396.6z M224.5,383.9c-0.1-2.2-0.1-4.4-0.7-6.6c-0.9-3.1-2.9-5.1-6-5.9c-3.1-0.7-6.2-0.7-9.3-0.1
		c-3.5,0.7-5.7,2.9-6.4,6.4c-0.9,4.1-0.9,8.2-0.1,12.3c0.1,0.3,0.1,0.6,0.2,1c0.9,3.1,3,5,6.2,5.7c2.9,0.6,5.9,0.6,8.8,0.1
		c3.5-0.7,5.7-2.7,6.6-6.2C224.3,388.4,224.4,386.1,224.5,383.9z M317.6,381c-2.5-0.1-4.8-0.2-7.1-0.2c-1.5,0-2.9,0.4-4.3,1.1
		c-1.2,0.6-2.2,1.4-2.9,2.6c-2.9,4.6-0.8,10.6,4.5,12.1c3.1,0.9,6.2,0.9,9.3,0.2c4-0.9,5.9-3.2,6.1-7.3c0.1-3.4,0.1-6.8,0-10.1
		c-0.2-4.3-2.5-7-6.8-7.9c-2.9-0.6-5.7-0.5-8.6-0.2c-1,0.1-1.9,0.4-3,0.6c0.1,1.5-0.5,2.8,0.4,4.2c0.8-0.1,1.5-0.2,2.2-0.3
		c2.3-0.2,4.6-0.4,6.9,0C317.2,376.2,318.2,377.9,317.6,381z M227.5,371.5c0.3,9.4,3.9,17.4,8.2,25.1c1.9,0,3.7,0,5.7,0
		c0.4-0.6,0.8-1.2,1.1-1.9c1.2-2.5,2.4-4.9,3.4-7.4c1.5-3.6,2.7-7.3,3.3-11.1c0.3-1.5,0.5-3,0.2-4.7c-0.8,0-1.4-0.1-2.1-0.1
		c-1,0-2,0-3.1,0c-0.4,2.4-0.6,4.7-1.1,6.9c-0.5,2.2-1.1,4.3-1.8,6.4c-0.7,2.2-1.5,4.3-2.8,6.5c-0.4-0.6-0.7-1-1-1.5
		c-2.4-5.4-4-11-4.6-16.8c0-0.5-0.2-0.9-0.3-1.4C231.1,371.3,229.4,371.4,227.5,371.5z M281.5,372c-0.2-0.2-0.3-0.3-0.5-0.4
		c-2.9-0.7-5.9-0.9-8.8-0.6c-1,0.1-2.1,0.4-3.1,0.8c-3.4,1.2-5,4.9-4,8.5c0.5,1.8,1.7,3,3.3,3.8c1.8,0.8,3.6,1.5,5.5,2.2
		c0.9,0.4,1.8,0.7,2.7,1.1c1,0.5,1.7,1.3,1.5,2.6c-0.2,1.2-0.9,1.9-2,2.2c-0.9,0.2-1.8,0.4-2.7,0.5c-2.2,0.2-4.3-0.2-6.3-0.7
		c-0.5-0.1-1.1-0.1-1.8-0.2c0,1.5-0.2,2.8,0.2,4.2c3.4,1.1,6.8,1.6,10.4,1c1.4-0.2,2.7-0.7,3.9-1.3c4.3-2.4,4.7-9.7-0.1-12.1
		c-1.2-0.6-2.4-1.1-3.6-1.6c-1.2-0.5-2.5-0.9-3.7-1.4c-0.6-0.2-1.2-0.5-1.7-0.9c-1.3-1-1.2-2.7,0.2-3.5c0.7-0.4,1.6-0.6,2.3-0.6
		c2,0,3.9,0.2,5.9,0.3c0.7,0,1.4,0.1,2.2,0.2C281.7,374.5,281.7,373.2,281.5,372z M287.7,366.5c-0.1,0.5-0.2,0.8-0.2,1
		c0,6.9,0,13.8,0,20.8c0,1.1,0.2,2.3,0.6,3.4c0.4,1.5,1.3,2.8,2.8,3.7c2.3,1.3,4.8,1.6,7.4,1.2c0.2-1.5,0.3-2.9-0.1-4.3
		c-0.8-0.1-1.5-0.2-2.2-0.3c-2-0.4-2.8-1.4-3-3.4c0-0.4-0.1-0.8-0.1-1.2c0-3.4,0-6.8,0-10.1c0-0.4,0.1-0.8,0.2-1.2
		c1.6-0.1,3.2-0.1,4.7-0.2c0.4-1.5,0.5-2.8,0-4.2c-1.6-0.3-3.2,0.1-4.8-0.3c-0.6-1.5,0.2-3.2-0.6-4.7
		C290.9,366.5,289.4,366.5,287.7,366.5z M333.1,396.6c0-1,0.1-1.8,0.1-2.6c0-4.1,0-8.2,0-12.3c0-1.1,0.1-2.3,0.3-3.4
		c0.2-1.1,0.9-2,2-2.3c1-0.3,2.1-0.3,3.1-0.5c0.7-0.1,1.5,0.2,2.2-0.5c0-1.3,0.4-2.6-0.3-4c-1.6,0-3.2-0.1-4.7,0
		c-1.1,0.1-2.3,0.4-3.3,0.8c-2.6,1-4,3-4.4,5.8c-0.1,0.5-0.1,1-0.1,1.5c0,5.3,0,10.7,0,16c0,0.5,0.1,0.9,0.2,1.5
		C329.8,396.6,331.3,396.6,333.1,396.6z M254.5,371.5c-0.1,0.6-0.1,1-0.1,1.4c0,7.4,0,14.8,0,22.3c0,0.5,0.2,0.9,0.3,1.4
		c1.7,0.1,3.2,0.3,4.8-0.2c0.1-0.5,0.2-0.9,0.2-1.3c0-0.9,0-1.8,0-2.7c0-6.1,0-12.2,0-18.3c0-0.9,0.2-1.8-0.4-2.6
		C257.6,371.5,256.2,371.5,254.5,371.5z"/>
	<path class="st1" d="M262.6,267.9c1.6,3,3.2,5.5,4.7,8.1c1.5,2.6,3.1,5.2,4.7,7.9c1.6,2.6,3.1,5.2,4.7,7.9c1.6,2.6,3.1,5.2,4.7,7.9
		c1.6,2.7,3.2,5.4,4.8,8.1c1.6,2.6,3.1,5.2,4.7,7.9c1.6,2.6,3.1,5.2,4.7,7.9c1.6,2.6,3.1,5.2,4.7,7.9c1.5,2.6,3.2,5.2,4.7,8
		c-0.6,0.1-0.9,0.2-1.3,0.2c-0.6,0-1.2,0-1.7,0c-15.3,0-30.5,0-45.8,0c-3.1,0-2.6,0.3-4.1-2.2c-20.7-34.8-41.4-69.7-62.1-104.5
		c-0.4-0.7-1-1.3-1-2.3c1,0,1.8-0.1,2.7-0.1c20.6,0,41.2,0,61.8,0c1.6,0,3.1-0.1,4.7-0.5c1.6-0.4,3.1-1.1,4.4-2.2
		c5.3-4.1,5.2-11.7,0.6-15.8c-2.3-2.1-5.1-3-8.1-3.2c-0.7-0.1-1.5,0-2.2,0c-24.7,0-49.3,0-74,0c-1,0-2,0-3.1,0
		c-3-4.8-5.7-9.6-8.6-14.4c-2.8-4.7-5.7-9.5-8.5-14.2c-2.8-4.8-5.7-9.6-8.5-14.3c0.3-0.7,0.8-0.6,1.2-0.6c0.6,0,1.2,0,1.7,0
		c34.4,0,68.8,0,103.1,0c6.2,0,12.3,0.8,18.2,2.9c17.3,6,30.1,20.8,33.6,38.7c5.4,27.3-11.9,54.1-39.6,60.2
		C266.6,267.3,264.8,267.6,262.6,267.9z"/>
	<path class="st2" d="M388.1,209.3c-1-0.5-1.9-0.3-2.8-0.3c-12,0-24.1,0-36.1,0c-8.8,0-17.6,0-26.5,0c-0.9,0-1.8-0.1-2.8-0.1
		c-0.8-4.3-1.6-8.5-3-12.5c-1.4-4.1-3.3-8.1-5.5-11.9c-2.2-3.7-4.8-7.1-7.7-10.3c-2.9-3.2-6.1-6-9.8-8.7c0.5-0.2,0.8-0.3,1.1-0.4
		c0.7,0,1.3,0,2,0c55.5,0,111,0,166.4,0c0.9,0,1.8,0,2.6,0c0.5,0.8,0,1.2-0.3,1.6c-2.6,4.3-5.1,8.6-7.7,13
		c-31.2,52.5-62.5,104.9-93.7,157.4c-0.5,0.8-0.9,1.5-1.3,2.1c-0.3,0.1-0.4,0.2-0.4,0.2c-0.1,0-0.2,0.1-0.2,0.1
		c-16.6,0-33.1,0-49.7,0.1c-0.4,0-0.8,0-1.2-0.1c-0.1,0-0.2,0-0.2-0.1c-0.1,0-0.1-0.1-0.3-0.3c0.1-0.8,0.6-1.4,1-2.1
		c5.2-8.8,10.5-17.6,15.7-26.3c19.7-33,39.4-65.9,59.1-98.9C387.3,211.1,387.9,210.3,388.1,209.3z"/>
	<path class="st3" d="M443.2,86.8c0.9,4.6,1.9,9.1,2.6,13.7c2.2,15,2.8,30,2.7,45.1c0,0.8-0.1,1.6-0.1,2.6c-2.2,0.6-4.3,0.2-6.4,0.3
		c-2.1,0.1-4.1,0-6,0c-0.7-0.8-0.5-1.6-0.5-2.3c0-5.1,0-10.2-0.1-15.3c-0.2-7-0.5-14-1.3-21c-0.5-4.2-1.1-8.3-1.6-12.5
		c0-0.3-0.1-0.6-0.2-1.1c-0.7-0.3-1.5-0.6-2.2-0.9c-24.7-9.1-49.3-18.1-74-27.2C321.6,55.6,287.2,43,252.8,30.4
		c-0.4-0.1-0.8-0.2-1.2-0.4c-1.1-0.6-2.2-0.5-3.3,0c-4.8,1.8-9.6,3.5-14.4,5.3C188.8,51.8,143.5,68.4,98.3,85
		c-9.4,3.5-18.9,6.9-28.3,10.4c-0.1,0-0.2,0-0.2,0.1c-2.1,0.8-2.1,0.8-2.4,2.9c-1,6.2-1.6,12.4-2.1,18.7c-0.9,12-1.1,24.1-0.6,36.1
		c0.3,8.3,0.7,16.6,1.4,24.9c0.6,7.3,1.4,14.6,2.3,21.9c0.9,7.6,2,15.2,3.1,22.8c0.6,4.3,1.5,8.6,2.2,12.9c0.1,0.5,0.1,1,0.2,1.5
		c0.2,0.9,0,1.7-0.5,2.6c-2.9,4.7-5.7,9.5-8.5,14.2c-0.2,0.3-0.5,0.6-0.9,1.2c-0.4-1.6-0.7-2.8-0.9-4.1c-1.9-9.8-3.8-19.6-5.2-29.4
		c-1.1-8.1-2.3-16.2-3.2-24.3c-0.7-6.2-1.2-12.5-1.7-18.7c-1.4-15.9-1.7-31.8-1.3-47.7c0.2-8.2,0.8-16.3,1.7-24.4
		c0.7-6.2,1.9-12.4,3.2-18.5c0.1-0.4,0.3-0.8,0.4-1.2c0.8-0.3,1.5-0.6,2.3-0.9c48.8-17.9,97.6-35.8,146.3-53.7
		c13.9-5.1,27.8-10.2,41.7-15.3c3.2-1.2,2.1-1.1,5.2,0C312,38.6,371.5,60.4,430.9,82.3c3.3,1.2,6.6,2.4,10,3.7
		C441.6,86.2,442.3,86.5,443.2,86.8z"/>
	<path class="st3" d="M437.4,247.6c0,0.5,0,0.9-0.1,1.3c-5.4,26.7-12.7,52.8-23.6,77.9c-16.3,37.4-39.7,69.7-70.2,97
		c-19.9,17.8-41.9,32.8-65.3,45.6c-8.9,4.9-18,9.3-27.1,13.7c-0.3,0.1-0.6,0.2-1,0.4c-0.4-0.1-0.9-0.2-1.3-0.4
		c-20.4-9.6-40.1-20.3-58.7-33c-17.1-11.7-33.1-24.8-47.6-39.6c-15.4-15.7-28.7-32.9-39.9-51.8c-0.4-0.7-1-1.3-1-2.1
		c0.6-0.6,1.2-0.4,1.7-0.4c2.5,0,4.9,0,7.4,0c1.2,0,2.5-0.1,3.7-0.3c1.3-0.3,2.2,0,2.9,1.2c1.1,1.8,2.3,3.6,3.5,5.4
		c12.9,19.6,28.3,37.1,45.8,52.7c18.7,16.6,39.2,30.7,61,42.7c6.8,3.7,13.7,7.1,20.6,10.7c0.6,0.3,1.2,0.6,1.8,0.9
		c0.4-0.2,0.9-0.4,1.3-0.6c21.2-10.3,41.4-22.1,60.4-36.1c15.6-11.5,30-24.3,43-38.6c18.4-20.3,33.2-43,44.7-67.9
		c5.8-12.7,10.7-25.8,14.8-39.3c0.4-1.3,0.9-2.6,1.7-3.8c6.7-11.2,13.4-22.5,20.1-33.8C436.3,248.8,436.5,248.1,437.4,247.6z"/>
	<path class="st4" d="M136.9,165.6c0.3,0.2,0.5,0.3,0.6,0.5c5.6,9.3,11.1,18.7,16.7,28c-0.5,0.8-0.8,1.5-1.3,2.2
		c-26.8,45-53.6,90.1-80.4,135.1c-1.3,2.3-2.7,4.5-4,6.8c-0.5,0.9-1.2,1.3-2.2,1.2c-0.4,0-0.8,0-1.2,0c-9.6,0-19.1,0-28.7,0
		c-0.9,0-1.8,0.2-2.6-0.2c0-0.3-0.1-0.5,0-0.6c34-57.1,68-114.3,102-171.4C136.2,166.7,136.5,166.2,136.9,165.6z"/>
	<path class="st5" d="M111.1,339.5c-11.2,0-22.1,0-33.1,0c-0.3,0-0.6-0.1-0.9-0.2c0-0.2-0.1-0.4,0-0.5
		c26.9-45.2,53.7-90.4,80.6-135.5c0.3-0.5,0.6-0.9,1-1.4c1.3,1.6,16.2,26.5,17.2,28.9C154.3,266.9,132.7,303.1,111.1,339.5z"/>
	<path class="st3" d="M297.4,100.4c-0.2,4.1-0.4,9-1.4,13.7c-0.4,1.9-1.1,3.6-2.5,5c-0.8,0.8-1.8,1.4-3,1.5c-2.4,0.2-4.1-0.9-5-3.2
		c-0.4-1.2-0.5-2.4-0.4-3.7c0.2-2.7,0.5-5.4,0.7-8.1c0.2-2.9,0.2-5.8,0.2-8.6c0-1-0.2-2-0.5-2.9c-1.1-3.7-4.7-4.8-7.8-2.6
		c-1.4,1-2.6,2.3-3.5,3.8c-1.1,1.8-2.1,3.7-3,5.7c-2.2,5.1-3.7,10.4-5.4,15.6c-0.6,1.8-1.2,3.6-2,5.3c-2.5,5.3-6.8,8.5-12.5,9.4
		c-7.9,1.3-14.3-1.4-18.7-8.2c-2.8-4.4-5.4-9.1-8-13.6c-0.8-1.4-1.6-2.9-2.5-4.2c-0.6-0.9-1.3-1.8-2.1-2.5c-2.3-2.1-5.3-0.6-5.8,1.8
		c-0.3,1.6-0.4,3.3-0.2,4.9c0.5,3.4,1.5,6.6,2.5,9.8c0.7,2.3,1.4,4.6,1.9,6.9c0.3,1.1,0.3,2.3,0.4,3.4c0.1,4.1-4.4,5.6-7.1,3.7
		c-0.9-0.6-1.6-1.4-2.2-2.3c-0.6-0.9-1.1-2-1.5-3.1c-2.3-5.9-4.1-12-4.9-18.3c-0.6-4.7-0.6-9.4,0-14.1c0.5-3.9,1.3-7.6,2.8-11.2
		c1-2.4,2.2-4.8,3.9-6.8c2.9-3.4,6.5-5.1,11-5.1c2.9,0,5.5,0.9,7.7,2.9c1.6,1.5,3.2,3.1,4.5,4.9c2,2.7,3.8,5.6,5.7,8.4
		c1,1.5,1.9,3.1,3,4.5c1,1.4,2.2,2.7,3.7,3.6c4.2,2.8,9.2,1.7,11.8-2.5c0.6-1,1.1-2,1.5-3.1c1.5-3.6,3-7.3,4.5-11
		c0.8-1.9,1.6-3.8,2.5-5.6c1.4-2.8,3.2-5.2,5.7-7.1c2.4-1.8,5-2.8,8-3.1c3.1-0.3,5.9,0.7,8.2,2.7c1.6,1.3,2.8,3,3.8,4.8
		c2.2,4,3.5,8.4,4.4,12.8C296.7,88.9,297.3,95.2,297.4,100.4z"/>
	<path class="st6" d="M197.5,267c-14.4,24.2-28.7,48.3-43.1,72.4c-0.7,0.1-1.3,0.2-2,0.2c-10.1,0-20.3,0-30.4,0
		c-0.6,0-1.1-0.1-1.7-0.1c0-0.3-0.1-0.5-0.1-0.6c19.8-33.3,39.6-66.6,59.4-99.9c0.2-0.3,0.4-0.5,0.6-0.7
		C181.5,239.7,195.9,263.7,197.5,267z"/>
	<path class="st7" d="M201.8,274.5c0.3,0.3,0.5,0.4,0.7,0.6c5.6,9.3,11.1,18.7,16.8,28.1c-7.2,12.1-14.4,24.1-21.6,36.2
		c-0.6,0.1-1.2,0.2-1.7,0.2c-10.2,0-20.4,0-30.7,0c-0.6,0-1.1-0.1-1.7-0.1c-0.3-0.8,0.3-1.3,0.6-1.9c3.1-5.3,6.3-10.6,9.5-15.9
		c8.8-14.9,17.7-29.7,26.5-44.6C200.7,276.2,201.2,275.4,201.8,274.5z"/>
	<path class="st8" d="M223.5,310.8c0.4,0.5,0.8,0.9,1,1.3c7.2,11.6,15.2,25.3,15.9,27.3c-0.3,0.1-0.6,0.2-0.9,0.2
		c-4.3,0.2-30.8,0.1-32.6-0.2c-0.2-0.8,0.4-1.4,0.8-1.9c4.7-7.9,9.3-15.7,14-23.5C222.2,312.9,222.8,311.9,223.5,310.8z"/>
	<path class="st3" d="M196.4,396.6c-1.8,0-3.2,0-4.6,0c-0.7-0.7-0.5-1.5-0.5-2.2c0-4,0-7.9,0-11.9c0-1.2-0.1-2.5-0.2-3.7
		c-0.1-1.6-1.1-2.5-2.6-2.9c-1.8-0.5-3.6-0.5-5.4,0c-1.5,0.5-2.4,1.4-2.5,3c-0.1,0.9-0.1,1.8-0.1,2.7c0,4.1,0,8.2,0,12.4
		c0,0.8,0.2,1.7-0.4,2.5c-1.5,0.3-3,0.2-4.5,0.1c-0.6-0.6-0.5-1.3-0.5-1.9c0-4.4,0-8.9,0-13.3c0-0.7,0-1.5-0.1-2.2
		c-0.2-1.7-1.1-2.8-2.9-3.3c-1.6-0.4-3.2-0.4-4.9,0c-1.6,0.4-2.6,1.4-2.8,3.1c-0.1,1-0.1,2-0.1,3c0,4,0,8.1,0,12.1
		c0,0.8-0.1,1.6-0.1,2.6c-1.7,0.3-3.2,0.2-4.9,0.1c-0.1-0.5-0.3-0.9-0.3-1.4c0-5.2,0-10.4,0-15.6c0-0.7,0.1-1.3,0.2-2
		c0.4-3.1,2.2-5.1,5.1-6.1c3.5-1.1,7.2-1.1,10.7,0c1,0.3,1.9,0.9,2.9,1.5c3.9-2.7,8.2-2.7,12.7-1.7c3.8,0.9,5.7,3.3,5.9,7.2
		c0.1,2.9,0,5.8,0.1,8.6c0,2.4,0,4.8,0,7.2C196.6,395.1,196.5,395.8,196.4,396.6z"/>
	<path class="st3" d="M224.5,383.9c-0.1,2.2-0.1,4.5-0.7,6.6c-0.9,3.5-3.1,5.5-6.6,6.2c-2.9,0.6-5.9,0.6-8.8-0.1
		c-3.2-0.7-5.3-2.6-6.2-5.7c-0.1-0.3-0.2-0.6-0.2-1c-0.8-4.1-0.8-8.2,0.1-12.3c0.8-3.5,2.9-5.7,6.4-6.4c3.1-0.7,6.2-0.7,9.3,0.1
		c3.2,0.7,5.1,2.8,6,5.9C224.3,379.5,224.4,381.7,224.5,383.9z M206.8,383.9c0.1,1.1,0.1,2.4,0.2,3.6c0.1,0.7,0.2,1.5,0.4,2.2
		c0.5,1.5,1.5,2.3,3,2.6c1.5,0.3,3.1,0.3,4.7,0.1c2.1-0.3,3.3-1.5,3.6-3.5c0.6-3.3,0.6-6.5,0-9.8c-0.4-1.9-1.5-3.1-3.4-3.4
		c-1.7-0.3-3.4-0.3-5.1,0.1c-1.4,0.4-2.3,1.2-2.7,2.6c-0.2,0.7-0.4,1.4-0.4,2.2C206.8,381.7,206.8,382.7,206.8,383.9z"/>
	<path class="st3" d="M317.6,381c0.7-3.1-0.3-4.8-3.3-5.4c-2.3-0.4-4.6-0.3-6.9,0c-0.7,0.1-1.5,0.2-2.2,0.3
		c-0.9-1.4-0.4-2.7-0.4-4.2c1.1-0.2,2.1-0.5,3-0.6c2.9-0.3,5.7-0.4,8.6,0.2c4.3,1,6.6,3.6,6.8,7.9c0.1,3.4,0.1,6.8,0,10.1
		c-0.2,4.1-2.1,6.4-6.1,7.3c-3.1,0.7-6.2,0.7-9.3-0.2c-5.3-1.5-7.5-7.5-4.5-12.1c0.7-1.2,1.7-2,2.9-2.6c1.4-0.6,2.8-1.1,4.3-1.1
		C312.8,380.8,315.1,380.9,317.6,381z M317.6,385.4c-1.6-0.2-3-0.4-4.3-0.4c-1.1,0-2.1,0.1-3.2,0.3c-1.6,0.3-2.6,1.5-2.7,3.1
		c-0.2,1.8,0.5,3.1,2.2,3.7c2.1,0.8,4.2,0.7,6.3,0.1c0.8-0.2,1.6-0.7,1.8-1.6C318,389.1,318.2,387.4,317.6,385.4z"/>
	<path class="st3" d="M227.5,371.5c1.9-0.1,3.5-0.2,5.3,0c0.1,0.5,0.3,0.9,0.3,1.4c0.6,5.9,2.2,11.5,4.6,16.8c0.2,0.5,0.6,0.9,1,1.5
		c1.4-2.2,2.1-4.3,2.8-6.5c0.7-2.1,1.3-4.3,1.8-6.4c0.5-2.2,0.7-4.5,1.1-6.9c1.1,0,2.1,0,3.1,0c0.6,0,1.3,0.1,2.1,0.1
		c0.3,1.7,0,3.2-0.2,4.7c-0.7,3.8-1.8,7.5-3.3,11.1c-1.1,2.5-2.3,4.9-3.4,7.4c-0.3,0.7-0.7,1.3-1.1,1.9c-1.9,0-3.7,0-5.7,0
		C231.5,388.8,227.9,380.9,227.5,371.5z"/>
	<path class="st3" d="M281.5,372c0.2,1.2,0.2,2.5-0.1,3.9c-0.8-0.1-1.5-0.2-2.2-0.2c-2-0.1-3.9-0.3-5.9-0.3c-0.8,0-1.6,0.3-2.3,0.6
		c-1.4,0.8-1.5,2.5-0.2,3.5c0.5,0.4,1.1,0.7,1.7,0.9c1.2,0.5,2.5,0.9,3.7,1.4c1.2,0.5,2.4,1,3.6,1.6c4.8,2.4,4.4,9.7,0.1,12.1
		c-1.2,0.7-2.6,1.1-3.9,1.3c-3.6,0.6-7,0.2-10.4-1c-0.4-1.4-0.2-2.7-0.2-4.2c0.7,0.1,1.3,0.1,1.8,0.2c2.1,0.5,4.2,0.9,6.3,0.7
		c0.9-0.1,1.8-0.2,2.7-0.5c1.1-0.3,1.9-1,2-2.2c0.2-1.2-0.5-2.1-1.5-2.6c-0.9-0.4-1.8-0.8-2.7-1.1c-1.8-0.7-3.7-1.4-5.5-2.2
		c-1.6-0.7-2.8-2-3.3-3.8c-1-3.6,0.6-7.3,4-8.5c1-0.4,2.1-0.7,3.1-0.8c3-0.3,5.9-0.1,8.8,0.6C281.1,371.7,281.2,371.8,281.5,372z"/>
	<path class="st3" d="M287.7,366.5c1.7,0,3.2,0,4.8,0c0.8,1.5,0,3.2,0.6,4.7c1.5,0.4,3.1,0,4.8,0.3c0.4,1.4,0.4,2.7,0,4.2
		c-1.6,0.1-3.1,0.1-4.7,0.2c-0.1,0.5-0.2,0.9-0.2,1.2c0,3.4,0,6.8,0,10.1c0,0.4,0,0.8,0.1,1.2c0.2,2,1,2.9,3,3.4
		c0.7,0.2,1.5,0.2,2.2,0.3c0.4,1.4,0.3,2.7,0.1,4.3c-2.7,0.4-5.1,0.1-7.4-1.2c-1.4-0.8-2.3-2.1-2.8-3.7c-0.3-1.1-0.5-2.3-0.6-3.4
		c0-6.9,0-13.8,0-20.8C287.5,367.3,287.6,367,287.7,366.5z"/>
	<path class="st3" d="M333.1,396.6c-1.8,0-3.3,0-4.8,0c-0.1-0.5-0.2-1-0.2-1.5c0-5.3,0-10.7,0-16c0-0.5,0-1,0.1-1.5
		c0.4-2.7,1.8-4.7,4.4-5.8c1.1-0.4,2.2-0.7,3.3-0.8c1.5-0.1,3.1,0,4.7,0c0.7,1.4,0.3,2.7,0.3,4c-0.7,0.7-1.5,0.4-2.2,0.5
		c-1.1,0.1-2.1,0.2-3.1,0.5c-1.1,0.3-1.8,1.1-2,2.3c-0.2,1.1-0.3,2.3-0.3,3.4c0,4.1,0,8.2,0,12.3
		C333.2,394.8,333.2,395.6,333.1,396.6z"/>
	<path class="st3" d="M254.5,371.5c1.7,0,3.2,0,4.7,0c0.7,0.8,0.4,1.8,0.4,2.6c0,6.1,0,12.2,0,18.3c0,0.9,0,1.8,0,2.7
		c0,0.4-0.1,0.8-0.2,1.3c-1.6,0.4-3.1,0.3-4.8,0.2c-0.1-0.5-0.3-0.9-0.3-1.4c0-7.4,0-14.8,0-22.3
		C254.3,372.5,254.4,372.1,254.5,371.5z"/>
	<path class="st0" d="M206.8,383.9c0.1-1.2,0.1-2.2,0.2-3.3c0.1-0.7,0.2-1.5,0.4-2.2c0.4-1.4,1.3-2.2,2.7-2.6
		c1.7-0.4,3.4-0.4,5.1-0.1c1.9,0.4,3.1,1.5,3.4,3.4c0.6,3.3,0.6,6.6,0,9.8c-0.4,2-1.6,3.2-3.6,3.5c-1.6,0.2-3.1,0.2-4.7-0.1
		c-1.5-0.3-2.5-1.2-3-2.6c-0.2-0.7-0.4-1.4-0.4-2.2C206.8,386.3,206.8,385,206.8,383.9z"/>
	<path class="st0" d="M317.6,385.4c0.6,1.9,0.4,3.6,0,5.3c-0.2,0.8-0.9,1.4-1.8,1.6c-2.1,0.6-4.2,0.7-6.3-0.1
		c-1.6-0.6-2.3-2-2.2-3.7c0.1-1.6,1.1-2.8,2.7-3.1c1-0.2,2.1-0.3,3.2-0.3C314.6,385.1,316,385.3,317.6,385.4z"/>
</g>
</svg>
