<?xml version="1.0" standalone="no"?>
<!DOCTYPE svg PUBLIC "-//W3C//DTD SVG 20010904//EN"
 "http://www.w3.org/TR/2001/REC-SVG-20010904/DTD/svg10.dtd">
<svg version="1.0" xmlns="http://www.w3.org/2000/svg"
 width="895.000000pt" height="239.000000pt" viewBox="0 0 895.000000 239.000000"
 preserveAspectRatio="xMidYMid meet">

<g transform="translate(0.000000,239.000000) scale(0.100000,-0.100000)"
fill="#000000" stroke="none">
<path d="M1335 2311 c-60 -37 -254 -155 -430 -261 -176 -107 -322 -195 -324
-196 -3 -3 -161 -509 -161 -518 0 -2 19 -11 43 -21 40 -16 286 -120 1277 -542
245 -105 462 -196 483 -204 20 -7 37 -19 37 -26 0 -11 -194 -13 -1044 -13
l-1044 0 -16 -47 c-8 -27 -43 -138 -77 -248 -34 -110 -64 -206 -66 -213 -4
-10 207 -12 1047 -10 l1053 3 128 415 c71 228 143 463 162 521 l34 106 -336
143 c-185 79 -451 192 -591 252 -140 60 -303 129 -361 153 l-107 44 -113 -50
c-63 -28 -133 -60 -157 -71 -24 -11 -46 -18 -49 -14 -3 3 9 50 27 104 l34 99
105 34 c82 26 127 48 198 97 l92 62 754 0 c592 0 757 3 764 13 6 6 31 82 56
167 26 85 55 182 67 214 11 33 20 63 20 68 0 4 -314 8 -697 7 l-698 0 -110
-68z"/>
<path d="M3076 2188 c-32 -106 -64 -212 -72 -235 l-13 -43 364 0 363 0 16 48
c52 162 126 404 126 412 0 6 -139 10 -363 10 l-362 0 -59 -192z"/>
<path d="M4895 2158 c-37 -123 -70 -228 -72 -235 -4 -9 31 -13 139 -15 l143
-3 -393 -152 -393 -153 -682 -1 -682 -1 235 -54 c129 -30 282 -66 340 -80 58
-15 137 -34 177 -43 39 -9 74 -19 77 -22 4 -3 -54 -29 -127 -57 l-133 -52
-345 -1 -344 -1 155 -34 c85 -19 164 -39 175 -43 11 -5 36 -13 55 -18 33 -8
22 -13 -208 -103 -133 -51 -259 -103 -279 -114 l-37 -21 -77 -250 c-42 -138
-106 -347 -142 -465 -37 -119 -67 -219 -67 -223 0 -4 162 -7 360 -7 332 0 360
1 368 17 5 10 47 143 93 296 69 227 88 278 104 283 11 4 281 108 600 231 319
124 588 227 598 230 12 4 17 0 17 -13 0 -11 -72 -250 -159 -532 l-158 -512
365 2 366 3 313 1015 c172 558 334 1085 359 1170 26 85 49 161 52 168 3 9 -73
12 -360 12 l-364 0 -69 -222z"/>
<path d="M6380 2183 c-179 -108 -374 -226 -434 -262 -79 -48 -112 -74 -117
-91 -8 -31 -376 -1225 -388 -1261 -9 -26 -4 -29 203 -154 116 -70 314 -190
439 -266 l229 -139 1101 1 c606 1 1091 3 1077 6 -14 2 -241 33 -505 69 -264
36 -491 67 -504 70 -16 3 -22 10 -18 22 2 9 71 231 151 492 81 261 149 483
152 493 5 16 -17 17 -359 17 l-364 0 -78 -252 c-42 -139 -87 -284 -99 -323
l-22 -70 -343 -3 -343 -2 6 22 c3 13 95 311 204 663 l198 640 679 3 c374 1
683 6 687 10 5 5 32 84 61 178 l53 169 129 23 c401 70 751 133 760 137 6 2
-494 4 -1110 4 l-1120 1 -325 -197z"/>
</g>
</svg>
