<?xml version="1.0" encoding="utf-8"?>
<!-- Generator: Adobe Illustrator 26.0.1, SVG Export Plug-In . SVG Version: 6.00 Build 0)  -->
<svg version="1.1" id="Layer_1" xmlns="http://www.w3.org/2000/svg" xmlns:xlink="http://www.w3.org/1999/xlink" x="0px" y="0px"
	 viewBox="0 0 500 500" style="enable-background:new 0 0 500 500;" xml:space="preserve">
<style type="text/css">
	.st0{fill:#FFFFFF;}
</style>
<g>
	<path class="st0" d="M89.6,440.6c-6.9,8.3-15.2,17.7-24.6,27.7c7.4,6.9,15.7,13.5,24.7,20c5.5,3.8,11.7,7.7,18,11.5
		C100.2,479.2,94.2,459.5,89.6,440.6L89.6,440.6z"/>
	<path class="st0" d="M78.2,344.3c-17.4,8.6-40.6,18.7-66.1,27.7c4.6,19.5,10.8,36.9,19.2,52.7c19.2-12.1,36.1-24.4,49.2-34.7
		C78.7,373.9,77.9,358.7,78.2,344.3z"/>
	<path class="st0" d="M121.2,201.5C88.8,188.6,40.4,165.4,0,135v69.1c37.8,14.3,76.5,23.2,103.9,28
		C109.1,221,114.9,210.9,121.2,201.5z"/>
	<path class="st0" d="M166.7,150c-22.4-23-53.6-59.5-77.6-99.7L27.4,71.7c34.1,43.5,82.8,81.1,114.8,102.5
		C150.1,165.3,158.4,157.3,166.7,150L166.7,150z"/>
	<path class="st0" d="M195.1,128.8c11.4-7.4,22.4-13.1,32.4-17.5c-9.2-25-20.3-61.3-27-99.6l-55,19.2
		C160.3,69.4,180.1,104.9,195.1,128.8z"/>
	<path class="st0" d="M90.5,265.7c-23.7,0.9-56.1,0.6-89.9-3.2c0.6,19.7,1.5,38,3.1,55c29.8-3.4,57.5-9.1,78.1-14.3
		C84.1,289.9,87,277.4,90.5,265.7z"/>
	<path class="st0" d="M353.6,213.5c5.5,4.6,20,0.3,20,0.3l-10.4-12.4l-22.3-14.9C340.8,186.6,348,209.1,353.6,213.5z"/>
	<polygon class="st0" points="426.4,337.5 413,326.8 420.7,345.3 442.4,343.7 	"/>
	<path class="st0" d="M265.5,0.2c-9.2,29.5-12.1,65.8-1.7,101.4h-0.3h0.3c3.7-3.8,32.1-33.7,57.8-61.6c0,0,33.7,38.7-13.4,78.5
		c0,0,84.1,58.7,89.4,61.2c0,0-4.3,18.3-0.2,33.8l66.1,128l-33.3,39.3l-48.9-27.5l23.5,37.8c0,0-26.6,3.2-34.7-0.6
		c-4.6-24-25.8-62.8-25.8-62.8l-49.8-20.1c0,0-21.7-26.7-20.3-65.5c0,0-24.7,101.7,42.1,127.2L410,488.4
		c86.5-59.8,90-142.9,90-308.5V81.2L265.5,0.2z"/>
</g>
</svg>
