<svg width="512" height="512" viewBox="0 0 512 512" fill="none" xmlns="http://www.w3.org/2000/svg">
<circle cx="256" cy="256" r="248.889" fill="#442C68" stroke="url(#paint0_linear_643_215)" stroke-width="14.2222"/>
<path d="M445.377 303.162C450.63 285.446 453.48 266.612 453.48 247.219C453.48 138.073 364.956 49.5483 255.809 49.5483C146.662 49.5483 58.1936 138.073 58.1936 247.219C58.1936 266.612 60.9879 285.446 66.2413 303.162L98.0408 268.847C94.9111 255.49 93.2346 241.519 93.2346 227.212C93.2346 191.221 101.115 160.204 115.813 135.167C113.633 152.883 110.448 181.105 111.901 184.179C112.404 185.129 132.858 208.993 142.527 220.338C141.856 222.741 141.241 225.256 140.682 227.827C140.403 228.833 147.724 239.619 147.165 241.016C145.097 246.437 70.824 311.992 70.1534 316.519C69.9298 318.139 72.8359 341.053 74.0095 343.456C75.0155 345.524 89.8813 368.717 89.8813 368.717C89.8813 368.717 88.7636 355.583 89.3225 354.633C89.9931 353.572 96.9231 335.241 97.5378 334.235C97.8731 333.732 109.218 320.263 109.218 320.263V322.051L103.462 335.911C103.462 335.911 98.8791 366.37 98.8232 368.046C98.7114 371.12 108.38 390.457 109.33 391.519C111.677 394.257 135.038 413.65 135.038 413.65C135.038 413.65 133.529 404.317 133.641 403.087C133.697 401.858 137.72 382.353 138.559 380.565C138.782 380.006 146.83 369.667 146.83 369.667L146.942 371.008C146.942 371.008 143.98 380.788 143.756 381.794C143.533 382.8 143.588 409.067 143.7 410.52C143.812 412.085 154.486 424.659 155.381 425.945C157.616 429.354 188.968 441.705 188.968 441.705C188.968 441.705 184.833 434.663 184.665 432.148C184.665 431.757 184.609 429.913 184.553 427.621C184.442 422.256 184.33 414.208 184.442 413.482C184.553 412.42 193.16 399.119 193.16 399.119L193.551 400.013C193.551 400.013 191.092 413.706 191.036 414.264C190.924 415.606 193.998 434.942 194.613 435.781C195.675 437.401 219.706 452.1 222.668 452.938C231.61 455.62 255.865 465.457 255.865 465.457C255.865 465.457 280.623 455.62 289.509 452.938C292.471 452.044 316.502 437.346 317.564 435.781C318.178 434.887 321.252 415.606 321.14 414.264C321.085 413.761 318.626 400.013 318.626 400.013L319.017 399.119C319.017 399.119 327.623 412.364 327.735 413.482C327.847 414.6 327.623 430.807 327.512 432.204C327.288 434.719 323.152 441.761 323.152 441.761C323.152 441.761 354.505 429.466 356.74 426.001C357.579 424.715 368.309 412.141 368.421 410.576C368.532 409.123 368.588 382.856 368.365 381.85C368.141 380.788 365.123 371.064 365.123 371.064L365.291 369.723C365.291 369.723 373.339 380.062 373.562 380.621C374.4 382.409 378.424 401.913 378.48 403.143C378.48 404.372 377.083 413.706 377.083 413.706C377.083 413.706 400.444 394.313 402.791 391.574C403.685 390.513 413.353 371.176 413.298 368.102C413.298 366.425 408.659 335.967 408.659 335.967L402.847 322.107V320.319C402.847 320.319 414.248 333.788 414.527 334.291C415.142 335.352 422.016 353.627 422.742 354.689C423.357 355.639 422.184 368.773 422.184 368.773C422.184 368.773 437.049 345.524 438.055 343.512C439.229 341.109 442.135 318.195 441.856 316.575C441.185 312.048 366.967 246.493 364.844 241.072C364.285 239.675 371.55 228.888 371.327 227.883C370.768 225.312 370.153 222.797 369.538 220.394C379.207 209.105 399.661 185.241 400.108 184.235C401.617 181.273 398.543 154.112 396.364 136.396C410.671 161.154 418.327 191.78 418.327 227.212C418.327 241.575 416.651 255.49 413.521 268.847L445.321 303.162H445.377ZM378.983 277.622C380.604 283.154 363.055 308.806 357.746 311.433C355.175 312.774 323.544 299.417 312.59 295.729C311.36 295.338 301.301 296.399 301.301 296.399L301.524 297.517C301.524 297.517 309.404 298.523 310.522 299.306C313.149 301.206 332.877 320.04 333.547 321.996C334.497 325.013 327.735 341.221 328.238 342.674C328.741 344.071 345.507 340.55 345.507 340.55C345.507 340.55 334.05 352.566 331.815 353.963C329.635 355.36 311.696 360.446 307.784 360.557C303.871 360.669 288.056 352.901 287.497 353.739C286.77 354.801 301.636 366.705 301.636 366.705C301.636 366.705 274.866 365.755 272.631 364.805C270.395 363.855 255.809 354.577 255.809 354.577C254.971 355.136 241.67 363.855 239.546 364.805C237.366 365.755 210.541 366.705 210.541 366.705L210.876 366.425L211.491 365.922C213.391 364.413 217.694 360.893 220.88 357.987L221.327 357.595C223.395 355.639 224.959 354.074 224.68 353.683C224.121 352.845 208.305 360.669 204.393 360.501C200.425 360.39 182.541 355.304 180.306 353.907C178.182 352.51 167.34 341.221 166.726 340.494C166.726 340.494 166.726 340.494 166.837 340.494C168.402 340.829 183.492 343.903 183.995 342.562C184.497 341.165 177.735 324.902 178.685 321.884C179.3 319.928 199.084 301.038 201.711 299.194C202.828 298.411 210.708 297.405 210.708 297.405L210.876 296.288C210.876 296.288 200.816 295.17 199.587 295.617C188.689 299.306 157.057 312.663 154.43 311.321C149.177 308.695 131.573 283.043 133.194 277.51C134.814 271.865 155.604 244.928 155.939 242.469C156.219 240.681 150.015 229.615 149.736 228.609C149.736 228.609 149.96 228.162 150.407 227.938C153.201 226.318 164.099 223.915 165.496 225.312C166.167 225.982 171.476 232.074 178.685 240.345C175.109 242.748 172.147 245.99 170.135 249.734C168.179 253.423 166.949 257.67 166.949 262.141C166.949 276.783 179.188 288.687 194.334 288.687C200.872 288.687 206.852 286.508 211.491 282.875C212.217 282.26 212.944 281.701 213.614 281.031C217.303 285.39 220.097 288.743 221.327 290.308L221.997 291.258C221.886 293.046 217.974 317.692 217.638 320.878C217.638 320.99 217.638 321.101 217.638 321.157C217.806 324.566 247.426 335.185 255.865 339.265C264.248 335.185 294.427 324.566 294.594 321.157C294.594 319.816 290.291 293.158 290.235 291.258C290.347 290.867 293.644 286.899 298.618 281.031C303.536 285.781 310.354 288.687 317.899 288.687C333.044 288.687 345.283 276.839 345.283 262.141C345.283 253.143 340.645 245.151 333.603 240.401C340.757 232.13 346.122 226.038 346.792 225.368C348.413 223.747 362.888 227.268 362.497 228.721C362.273 229.671 356.014 240.792 356.293 242.581C356.684 245.04 377.418 272.033 379.039 277.622H378.983ZM333.324 185.632C331.088 185.297 329.691 186.247 328.126 188.427C326.617 190.606 283.193 251.299 282.132 248.952C281.796 248.225 272.966 235.595 269.948 231.347C269.725 231.012 269.166 231.236 269.278 231.627C271.066 241.91 280.511 295.785 281.461 301.932C282.467 308.75 282.914 309.645 281.461 310.427C276.263 313.165 276.208 312.998 255.865 318.866C255.865 318.866 235.131 312.718 230.772 310.427C229.263 309.645 229.71 308.75 230.772 301.932C231.722 295.785 241.111 241.91 242.899 231.627C242.955 231.236 242.452 231.012 242.228 231.347C239.266 235.595 230.436 248.225 230.101 248.952C229.039 251.299 185.615 190.55 184.05 188.427C182.486 186.247 181.088 185.353 178.853 185.632C176.394 185.968 167.955 188.762 168.626 187.532C170.693 184.123 197.463 142.879 245.805 132.428C248.767 131.813 253.35 130.528 255.977 130.416C258.603 130.528 263.521 131.813 266.483 132.428C314.825 142.879 341.651 184.123 343.663 187.532C344.278 188.762 335.839 185.968 333.38 185.632H333.324ZM333.324 255.938C333.324 266.165 323.935 274.436 312.422 274.436C309.851 274.436 307.336 274.045 305.045 273.262C312.534 264.544 321.588 254.093 329.356 245.096C331.815 248.169 333.324 251.858 333.324 255.938ZM206.964 273.262C205.064 273.877 203.052 274.324 200.872 274.38C200.481 274.38 200.034 274.38 199.587 274.38C188.354 274.38 179.188 266.556 178.741 256.664C178.741 256.441 178.741 256.161 178.741 255.882C178.741 251.802 180.25 248.113 182.709 245.04C190.477 253.982 199.531 264.488 206.964 273.207V273.262ZM362.385 150.2C361.491 151.318 348.078 156.627 340.03 159.757C313.652 126.728 280.79 116.109 268.048 112.7C265.142 111.918 256.927 111.806 255.809 111.806H255.697C255.194 111.806 252.903 111.806 250.444 111.974C248.041 112.085 245.302 112.309 243.905 112.644C231.163 116.053 198.302 126.672 171.923 159.701C163.875 156.571 150.463 151.262 149.512 150.144C148.283 148.579 137.832 108.844 138.391 106.273C166.39 79.3918 206.349 64.5818 255.641 64.5818C304.933 64.5818 345.451 79.5594 373.45 106.776C373.115 112.141 363.503 148.635 362.273 150.144L362.385 150.2Z" fill="url(#paint1_radial_643_215)"/>
<path d="M142.574 220.337L119.214 176.131L115.861 135.222C113.681 152.938 110.495 181.161 111.948 184.235C112.451 185.185 132.906 209.048 142.574 220.393V220.337Z" fill="#D15E12"/>
<path d="M193.165 399.124L192.214 395.771L192.829 387.555L179.193 407.563L184.614 427.57C184.502 422.261 184.39 414.213 184.502 413.487C184.614 412.425 193.22 399.124 193.22 399.124H193.165Z" fill="#D15E12"/>
<path d="M95.9723 258.735L66.2406 290.814C61.6578 275.277 58.9194 258.902 58.3046 242.081C58.3046 243.813 58.1929 245.49 58.1929 247.222C58.1929 266.671 60.9872 285.449 66.2406 303.221L98.0401 268.906C97.2576 265.553 96.587 262.2 95.9723 258.735Z" fill="#D15E12"/>
<path d="M207.031 273.264C205.186 273.879 203.007 274.326 200.995 274.438C200.604 274.438 200.157 274.438 199.709 274.438C188.476 274.438 179.311 266.613 178.864 256.722C178.864 256.498 178.864 256.219 178.864 255.939C178.864 252.418 179.981 249.121 181.938 246.271C179.59 249.568 178.137 253.257 178.137 257.504C178.137 257.839 178.137 258.175 178.137 258.454C178.64 270.078 189.37 279.3 202.448 279.3C202.951 279.3 203.454 279.3 203.957 279.244C206.472 279.132 208.819 278.629 210.999 277.903L207.031 273.264Z" fill="#D15E12"/>
<path d="M165.504 225.369C166.175 226.039 178.694 240.402 178.694 240.402L182.773 245.097L207.028 273.208C208.425 274.829 209.711 276.393 210.996 277.902L213.623 280.976C213.623 280.976 220.106 288.688 221.335 290.253L172.546 218.942L160.978 216.986L150.415 227.996C153.209 226.375 164.107 223.972 165.504 225.369Z" fill="#D15E12"/>
<path d="M89.2624 355.365C86.3563 350.838 74.9554 332.898 74.0613 331.11C73.3906 329.768 72.1611 321.833 71.2669 314.903C70.6522 315.685 70.261 316.244 70.2051 316.579C69.9815 318.2 72.8876 341.113 74.0613 343.517C75.0672 345.584 89.9331 368.833 89.9331 368.833C89.9331 368.833 89.0389 358.215 89.2624 355.42V355.365Z" fill="#D15E12"/>
<path d="M146.885 369.724L145.488 364.974L147.667 359.664L140.682 369.556L135.093 382.466C135.093 382.466 133.696 397.723 134.143 400.517C135.372 394.258 137.999 381.851 138.614 380.622C138.782 380.287 146.941 369.724 146.941 369.724H146.885Z" fill="#D15E12"/>
<path d="M184.546 427.626C175.828 424.105 157.106 416.281 155.373 413.654C154.535 412.369 143.805 399.794 143.693 398.229C143.693 397.726 143.637 394.262 143.637 389.958C143.637 398.118 143.637 409.63 143.693 410.58C143.805 412.145 154.479 424.72 155.373 426.005C157.665 429.47 188.961 441.765 188.961 441.765C188.961 441.765 184.826 434.723 184.658 432.153C184.658 431.761 184.602 429.917 184.546 427.57V427.626Z" fill="#D15E12"/>
<path d="M109.339 379.171C108.612 378.333 102.521 366.261 100.006 359.611C99.3911 364.082 98.8882 367.491 98.8882 368.05C98.7764 371.124 108.445 390.46 109.395 391.522C111.742 394.261 135.103 413.653 135.103 413.653C135.103 413.653 133.594 404.32 133.706 403.147C133.706 402.923 133.873 401.917 134.153 400.52C129.793 396.887 111.463 381.574 109.395 379.171H109.339Z" fill="#D15E12"/>
<path d="M108.331 314.895L110.231 307.91L98.0476 325.179L92.2912 340.044L89.7205 353.96L97.6005 334.288L109.281 320.316L108.331 314.895Z" fill="#D15E12"/>
<path d="M395.851 135.222L392.498 176.131L369.137 220.338C378.806 209.049 399.26 185.185 399.763 184.179C401.272 181.105 398.086 152.883 395.851 135.167V135.222Z" fill="#D15E12"/>
<path d="M332.553 407.563L318.917 387.555L319.532 395.771L318.582 399.124C318.582 399.124 327.132 412.369 327.3 413.487C327.412 414.269 327.3 422.261 327.188 427.57L332.609 407.563H332.553Z" fill="#D15E12"/>
<path d="M453.373 242.021C452.758 258.899 450.019 275.217 445.437 290.754L415.705 258.675C415.09 262.084 414.42 265.493 413.637 268.846L445.437 303.161C450.69 285.389 453.484 266.611 453.484 247.162C453.484 245.43 453.373 243.697 453.373 242.021V242.021Z" fill="#D15E12"/>
<path d="M301.193 277.958C303.428 278.685 305.776 279.188 308.235 279.244C308.738 279.3 309.185 279.3 309.744 279.3C322.821 279.3 333.495 270.078 334.054 258.454C334.054 258.175 334.054 257.839 334.054 257.504C334.054 253.257 332.657 249.568 330.254 246.271C332.21 249.065 333.328 252.362 333.328 255.939C333.328 256.219 333.328 256.498 333.328 256.722C332.881 266.613 323.715 274.438 312.482 274.438C312.035 274.438 311.588 274.438 311.197 274.438C309.185 274.326 307.005 273.823 305.161 273.264L301.193 277.958V277.958Z" fill="#D15E12"/>
<path d="M301.198 277.958C302.484 276.449 303.825 274.884 305.166 273.263L329.421 245.153L333.501 240.458C333.501 240.458 346.019 226.095 346.69 225.425C348.087 224.027 358.929 226.43 361.78 228.051L351.217 217.042L339.648 218.998L290.859 290.309C292.089 288.744 298.572 281.032 298.572 281.032L301.198 277.958Z" fill="#D15E12"/>
<path d="M440.414 314.896C439.52 321.826 438.291 329.762 437.62 331.103C436.726 332.891 425.325 350.831 422.419 355.358C422.698 358.152 421.748 368.771 421.748 368.771C421.748 368.771 436.614 345.522 437.62 343.454C438.794 341.051 441.756 318.137 441.476 316.517C441.476 316.237 441.029 315.623 440.414 314.84V314.896Z" fill="#D15E12"/>
<path d="M376.628 382.468L371.04 369.558L364.054 359.667L366.233 364.976L364.836 369.726C364.836 369.726 372.996 380.289 373.163 380.624C373.722 381.909 376.349 394.26 377.634 400.52C378.081 397.669 376.684 382.468 376.684 382.468H376.628Z" fill="#D15E12"/>
<path d="M317.054 423.432C315.992 424.997 291.961 439.751 288.999 440.589C280.224 443.216 256.808 452.661 255.914 453.052H255.802C255.802 453.052 255.802 453.052 255.69 453.052C254.684 452.661 231.379 443.216 222.605 440.589C219.643 439.695 195.612 424.997 194.55 423.432C194.159 422.873 192.818 415.161 191.868 409.069C191.365 411.752 190.973 414.043 190.973 414.267C190.862 415.608 193.935 434.945 194.55 435.783C195.612 437.348 219.643 452.102 222.605 452.94C230.876 455.399 252.113 463.95 255.299 465.235C255.299 465.235 255.578 465.347 255.634 465.403H255.746C255.746 465.403 255.802 465.403 255.858 465.403C255.914 465.403 256.025 465.347 256.249 465.235C259.49 463.95 280.727 455.399 288.943 452.94C291.905 452.046 315.936 437.348 316.998 435.783C317.613 434.945 320.686 415.552 320.575 414.267C320.575 414.043 320.127 411.752 319.68 409.069C318.73 415.161 317.389 422.873 316.998 423.432H317.054Z" fill="#D15E12"/>
<path d="M210.664 297.569C210.664 297.569 202.784 298.575 201.666 299.358C199.039 301.258 179.255 320.092 178.641 322.048C177.691 325.066 184.453 341.273 183.95 342.726C183.447 344.123 166.681 340.602 166.681 340.602L159.304 333.169L175.679 337.584L171.431 321.768L201.163 297.569H210.664V297.569ZM301.479 297.569C301.479 297.569 309.36 298.575 310.477 299.358C313.104 301.258 332.888 320.092 333.503 322.048C334.453 325.066 327.69 341.273 328.193 342.726C328.696 344.123 345.462 340.602 345.462 340.602L352.839 333.169L336.465 337.584L340.712 321.768L310.98 297.569H301.479V297.569ZM293.991 320.874L274.374 328.363L255.82 331.716L237.266 328.363L217.65 320.874C217.65 320.874 217.65 321.098 217.65 321.153C217.817 324.563 247.437 335.181 255.876 339.261C264.315 335.181 293.935 324.563 294.102 321.153C294.102 321.098 294.102 321.042 294.102 320.874H293.991Z" fill="#D15E12"/>
<path d="M367.905 398.229C367.794 399.794 357.119 412.368 356.225 413.654C354.493 416.28 335.771 424.104 327.052 427.625C327.052 429.973 326.94 431.761 326.94 432.208C326.773 434.723 322.637 441.821 322.637 441.821C322.637 441.821 353.99 429.47 356.225 426.061C357.063 424.775 367.794 412.201 367.905 410.636C367.961 409.686 368.017 398.173 367.961 390.014C367.961 394.317 367.961 397.782 367.905 398.285V398.229Z" fill="#D15E12"/>
<path d="M402.344 379.17C400.276 381.573 381.945 396.886 377.586 400.519C377.865 401.916 378.033 402.922 378.033 403.146C378.089 404.319 376.636 413.652 376.636 413.652C376.636 413.652 399.996 394.26 402.344 391.521C403.294 390.459 412.906 371.122 412.85 368.049C412.85 367.49 412.347 364.081 411.733 359.61C409.162 366.26 403.126 378.276 402.399 379.17H402.344Z" fill="#D15E12"/>
<path d="M419.382 340.044L413.626 325.179L401.443 307.91L403.343 314.895L402.449 320.316L414.073 334.288L421.953 353.96L419.382 340.044Z" fill="#D15E12"/>
<path d="M207.028 273.32C205.128 273.934 203.116 274.382 200.937 274.437C200.545 274.437 200.098 274.437 199.651 274.437C188.418 274.437 179.253 266.613 178.805 256.721C178.805 256.498 178.805 256.218 178.805 255.939C178.805 251.859 180.314 248.171 182.773 245.097C190.542 254.039 199.595 264.545 207.028 273.264V273.32Z" fill="#412771"/>
<path d="M329.587 245.154C332.046 248.228 333.555 251.917 333.555 255.996C333.555 256.276 333.555 256.555 333.555 256.779C333.108 266.671 323.943 274.495 312.71 274.495C312.262 274.495 311.815 274.495 311.424 274.495C309.245 274.383 307.233 273.992 305.333 273.377C312.765 264.659 321.819 254.208 329.587 245.21V245.154Z" fill="#412771"/>
<defs>
<linearGradient id="paint0_linear_643_215" x1="58.4348" y1="89.0435" x2="473.043" y2="386.783" gradientUnits="userSpaceOnUse">
<stop stop-color="#EC9B3A"/>
<stop offset="1" stop-color="#FA8131"/>
</linearGradient>
<radialGradient id="paint1_radial_643_215" cx="0" cy="0" r="1" gradientUnits="userSpaceOnUse" gradientTransform="translate(253.294 198.319) scale(211.922 211.922)">
<stop stop-color="#D1AA43"/>
<stop offset="1" stop-color="#FA9E31"/>
</radialGradient>
</defs>
</svg>
