<?xml version="1.0" encoding="UTF-8"?>
<svg version="1.1" xmlns="http://www.w3.org/2000/svg" width="279" height="240">
<path d="M0 0 C4.43718981 3.64214854 6.59857495 8.34416468 7.21875 13.9921875 C7.48953363 20.33303758 5.88737415 25.98961209 4 32 C4.52843506 31.82871582 5.05687012 31.65743164 5.60131836 31.48095703 C8.04537145 30.6914178 10.49140453 29.90818768 12.9375 29.125 C13.76830078 28.85558594 14.59910156 28.58617188 15.45507812 28.30859375 C28.34194029 24.19683228 43.12828255 20.56731464 56.0078125 26.66015625 C60.52711308 29.69960743 62.9412417 33.71669127 64 39 C64.55453088 45.65437051 62.76158547 51.61425268 61 58 C62.59328125 58.76183594 62.59328125 58.76183594 64.21875 59.5390625 C76.11791384 65.29871925 84.88962438 69.71581925 91 82 C94.0183857 91.05515709 92.51445224 100.89137346 88.46484375 109.3046875 C87.98144531 110.19414062 87.49804688 111.08359375 87 112 C86.58878906 112.76570313 86.17757812 113.53140625 85.75390625 114.3203125 C78.39085335 126.51195499 67.15295936 135.04950612 55 142 C54.03578125 142.55300781 53.0715625 143.10601562 52.078125 143.67578125 C19.59099662 161.04113855 -20.49657367 162.09320058 -55.40795898 152.18212891 C-68.01628777 148.3200679 -79.90745167 142.55569246 -90 134 C-90.87269531 133.26265625 -91.74539062 132.5253125 -92.64453125 131.765625 C-102.55773516 122.66985169 -108.71362978 110.52802716 -109.375 97 C-108.78415718 73.2021643 -94.4896632 52.05185423 -78.484375 35.53564453 C-76.9540986 33.95251319 -75.44630552 32.34967588 -73.9375 30.74609375 C-57.48617239 13.51367155 -25.10917903 -12.57814409 0 0 Z " fill="#E5172D" transform="translate(147,28)"/>
<path d="M0 0 C1.06605469 0.29003906 2.13210937 0.58007812 3.23046875 0.87890625 C16.32518453 4.84549316 28.69326066 12.51886369 35.625 24.625 C39.44437567 33.13179126 39.55953679 42.59512361 36.4375 51.375 C29.40342017 66.25763206 15.55585109 76.14042653 0.4453125 81.76953125 C-11.23268224 85.85332866 -22.18979638 88.38176292 -34.625 88.3125 C-35.67461914 88.30758545 -36.72423828 88.3026709 -37.80566406 88.29760742 C-56.58319974 88.01706655 -75.34878983 83.34897306 -89.375 70.125 C-92.87638748 66.42595355 -95.11328634 62.70685407 -97 58 C-97.4125 57.0925 -97.825 56.185 -98.25 55.25 C-100.70314112 44.61972182 -98.44119773 36.35298043 -93.375 27 C-71.594563 -0.51213095 -33.07902425 -9.05688913 0 0 Z " fill="#FDF9FA" transform="translate(161,84)"/>
<path d="M0 0 C6.575333 4.79251677 12.15050887 9.8466095 14 18 C15.18905728 27.33536458 13.65772541 35.09189302 8.01171875 42.66796875 C-0.38637007 52.48749575 -9.93878793 57.79265455 -22.9296875 59.3515625 C-32.52936128 59.65070248 -41.44919187 57.00816991 -49 51 C-55.4985004 44.84042366 -58.13836858 39.10354622 -58.4375 30.1875 C-58.2238404 21.43674596 -55.94362157 14.12585713 -49.890625 7.66015625 C-36.99809263 -3.66076577 -15.60523695 -10.11349851 0 0 Z " fill="#040404" transform="translate(148,104)"/>
<path d="M0 0 C16.70300729 8.45348944 29.57020301 20.36809542 35.87890625 38.45703125 C37.87470124 44.99720835 38.21371409 51.01475601 38.19140625 57.83203125 C38.20751953 58.80914062 38.22363281 59.78625 38.24023438 60.79296875 C38.24524845 68.33413934 37.70274233 76.16255582 32.62890625 82.08203125 C29.04865116 83.87215879 26.8368085 84.02244586 22.87890625 83.45703125 C20.12561604 81.6614072 18.35263164 80.40448203 16.87890625 77.45703125 C16.64960856 71.26599351 16.64960856 71.26599351 17.3671875 68.734375 C20.14353059 56.37858858 17.62219019 44.38320737 11.19140625 33.70703125 C4.66904818 24.59850128 -5.08913287 19.34023112 -15.88671875 16.80859375 C-20.99313933 16.25354803 -26.09804102 16.56372117 -31.22070312 16.84765625 C-35.64557133 16.95976692 -37.51188817 16.90887171 -41.17578125 14.19140625 C-43.55569085 10.84615179 -43.80452132 9.33852191 -43.55078125 5.390625 C-42.86727005 2.31482461 -41.37746252 0.58446466 -39.12109375 -1.54296875 C-28.14564423 -5.20145192 -10.81037168 -4.1623608 0 0 Z " fill="#FE9934" transform="translate(230.12109375,2.54296875)"/>
<path d="M0 0 C7.36686895 5.08370193 11.18369113 10.55107339 14 19 C14.14703064 21.43448818 14.22105339 23.8737477 14.25 26.3125 C14.27578125 27.60800781 14.3015625 28.90351562 14.328125 30.23828125 C13.97992461 34.23014997 13.07873287 36.60490573 11 40 C8.47539309 42.00227445 7.23953569 42.00998065 4 41.875 C0.46506469 40.8439772 -0.7558124 39.89572593 -3 37 C-3.28515625 33.9765625 -3.28515625 33.9765625 -3.0625 30.625 C-2.86363571 23.86603026 -2.86363571 23.86603026 -6 18 C-10.78355287 13.3423301 -15.72446338 13.49559876 -22.07421875 13.37109375 C-25 13 -25 13 -26.83984375 11.68359375 C-28.77685294 8.87264775 -28.88414609 6.35976349 -29 3 C-27.68619148 -0.47772845 -26.702022 -1.648989 -23.375 -3.3125 C-14.85951342 -5.04713615 -7.78611565 -3.9882837 0 0 Z " fill="#FD9934" transform="translate(223,34)"/>
<path d="M0 0 C2.31 0 4.62 0 7 0 C7.33 5.28 7.66 10.56 8 16 C10.31 10.72 12.62 5.44 15 0 C17.64 0 20.28 0 23 0 C23.33 4.95 23.66 9.9 24 15 C24.42152344 14.00097656 24.84304687 13.00195312 25.27734375 11.97265625 C25.83060217 10.66921692 26.38399451 9.36583443 26.9375 8.0625 C27.21529297 7.40314453 27.49308594 6.74378906 27.77929688 6.06445312 C29.88671875 1.11328125 29.88671875 1.11328125 31 0 C33.33297433 -0.04092937 35.66705225 -0.04241723 38 0 C37.43888048 4.62847774 36.17201511 8.12866939 34.05859375 12.2734375 C33.47529297 13.42714844 32.89199219 14.58085937 32.29101562 15.76953125 C31.67335226 16.97144421 31.05551151 18.17326602 30.4375 19.375 C29.81501504 20.59988454 29.19326284 21.82514177 28.57226562 23.05078125 C27.05533977 26.03759651 25.53106192 29.0204132 24 32 C21.69 32 19.38 32 17 32 C16.67 26.39 16.34 20.78 16 15 C13.69 20.61 11.38 26.22 9 32 C6.36 32 3.72 32 1 32 C-0.2138361 21.33558287 -0.09531193 10.71729679 0 0 Z " fill="#000000" transform="translate(0,200)"/>
<path d="M0 0 C2 1.6875 2 1.6875 4 4.6875 C4.1875 7.3125 4.1875 7.3125 4 9.6875 C3 10.6875 3 10.6875 0.4375 10.75 C-0.366875 10.729375 -1.17125 10.70875 -2 10.6875 C-2.66 9.3675 -3.32 8.0475 -4 6.6875 C-5.43739513 6.66037934 -6.87493863 6.64104933 -8.3125 6.625 C-9.11300781 6.61339844 -9.91351563 6.60179687 -10.73828125 6.58984375 C-13.16861334 6.59092145 -13.16861334 6.59092145 -16 7.6875 C-17.97348066 12.04993093 -18.44856718 15.93268791 -18 20.6875 C-17.10242444 22.83530077 -17.10242444 22.83530077 -15 23.6875 C-11.42243314 23.68832535 -11.42243314 23.68832535 -8 22.6875 C-7.34 21.6975 -6.68 20.7075 -6 19.6875 C-7.98 19.6875 -9.96 19.6875 -12 19.6875 C-11.67 17.3775 -11.34 15.0675 -11 12.6875 C-6.38 12.6875 -1.76 12.6875 3 12.6875 C2.32418477 18.76983706 1.26361972 24.70064152 0 30.6875 C-2.66666667 30.6875 -5.33333333 30.6875 -8 30.6875 C-9.485 31.1825 -9.485 31.1825 -11 31.6875 C-17.07402456 32.13742774 -20.18071372 31.1040311 -24.75 27.1875 C-27.22900939 24.21268874 -27.39923678 20.76704206 -27.34375 17.0078125 C-26.46845731 11.09958687 -23.38491902 5.52607995 -18.875 1.625 C-13.24044679 -2.1721989 -6.2442388 -2.73185448 0 0 Z " fill="#000000" transform="translate(156,201.3125)"/>
<path d="M0 0 C7 0 14 0 21 0 C21.75539062 -0.02320313 22.51078125 -0.04640625 23.2890625 -0.0703125 C24.44535156 -0.09738281 24.44535156 -0.09738281 25.625 -0.125 C26.40101563 -0.14820313 27.17703125 -0.17140625 27.9765625 -0.1953125 C30 0 30 0 32 2 C32.63079323 9.69567746 30.92792412 16.57519698 29 24 C26.36 24 23.72 24 21 24 C21.99 18.39 22.98 12.78 24 7 C22.68 7.33 21.36 7.66 20 8 C18.68 13.28 17.36 18.56 16 24 C13.69 24 11.38 24 9 24 C9.5381371 18.30948637 10.1400133 12.65134116 11 7 C9.68 7.33 8.36 7.66 7 8 C5.68 13.28 4.36 18.56 3 24 C0.69 24 -1.62 24 -4 24 C-3.28621973 15.86290495 -1.67226118 7.98268072 0 0 Z " fill="#000000" transform="translate(185,208)"/>
<path d="M0 0 C1.051875 0.01353516 1.051875 0.01353516 2.125 0.02734375 C2.74375 0.03894531 3.3625 0.05054688 4 0.0625 C4.66 0.0625 5.32 0.0625 6 0.0625 C8 0.0625 10 0.0625 12 0.0625 C12.20893796 5.66651465 11.47090662 10.66280958 10.25 16.125 C10.01410156 17.28999023 10.01410156 17.28999023 9.7734375 18.47851562 C8.66985679 23.49131877 7.19923764 27.02566668 4 31.0625 C1.04797558 32.53851221 -1.65327952 32.31060352 -4.9375 32.375 C-6.18402344 32.41238281 -7.43054688 32.44976562 -8.71484375 32.48828125 C-12 32.0625 -12 32.0625 -13.94140625 30.23046875 C-15 28.0625 -15 28.0625 -15 25.0625 C-13.02 24.7325 -11.04 24.4025 -9 24.0625 C-9.474375 23.69125 -9.94875 23.32 -10.4375 22.9375 C-12.67611346 20.25116385 -12.87025492 18.56561707 -13 15.0625 C-11.8295723 9.57793386 -9.95033784 5.14026809 -6 1.0625 C-3.73845106 -0.06827447 -2.50117171 -0.04137968 0 0 Z M-3.1875 8.1875 C-5.2619932 11.47807542 -5.35475877 13.24884321 -5 17.0625 C-2.65466049 17.83206136 -2.65466049 17.83206136 0 18.0625 C2.38034644 16.53227729 2.9196551 15.30353469 3.8125 12.625 C4.02316906 9.74585622 3.51754003 8.47271064 2 6.0625 C-1.14964668 5.71410716 -1.14964668 5.71410716 -3.1875 8.1875 Z M-7 25.0625 C-7 25.7225 -7 26.3825 -7 27.0625 C-5.02 27.0625 -3.04 27.0625 -1 27.0625 C-0.67 26.0725 -0.34 25.0825 0 24.0625 C-2.42797311 24.0625 -4.62907005 24.56335685 -7 25.0625 Z " fill="#000000" transform="translate(267,207.9375)"/>
<path d="M0 0 C2.31 0 4.62 0 7 0 C7 2.64 7 5.28 7 8 C8.2375 7.896875 9.475 7.79375 10.75 7.6875 C14.04626073 7.71087774 14.78068715 7.83003254 17.5 9.9375 C19.55247977 14.12797953 19.88382222 17.42088659 19 22 C17.26878352 26.09390126 14.99463667 29.11289162 11.6875 32.0625 C8.58481816 33.14483088 6.27874248 32.88929526 3.0703125 32.328125 C0.02410177 31.84532934 -2.9210404 31.93585501 -6 32 C-5.46512323 24.60510032 -4.15463123 17.58021731 -2.4375 10.375 C-2.20353516 9.37082031 -1.96957031 8.36664063 -1.72851562 7.33203125 C-1.15792701 4.88665146 -0.58168567 2.44275931 0 0 Z M5.375 15 C3.21764945 18.13796443 3.30865344 21.23442808 3 25 C5.34533951 25.76956136 5.34533951 25.76956136 8 26 C10.6772682 24.37451573 10.99115623 23.03265393 11.8125 20 C12.31537595 16.81708195 12.31537595 16.81708195 10 14 C7.10782213 13.73795129 7.10782213 13.73795129 5.375 15 Z " fill="#000000" transform="translate(72,200)"/>
<path d="M0 0 C3.63467079 1.62400184 4.77408696 2.66113044 7 6 C7.52943899 9.9707924 7.86675378 12.50999517 5.83203125 16.0078125 C1.92381494 20.81019655 -1.26460948 22.65185939 -7.4375 23.4375 C-12.1958924 22.85313602 -13.64663763 21.35336237 -17 18 C-18.53214888 14.93570224 -18.22938548 12.3834358 -18 9 C-14.67847386 1.06524312 -8.02127437 -1.24314953 0 0 Z " fill="#F5F5F5" transform="translate(120,126)"/>
<path d="M0 0 C2.57637471 1.88515223 3.59667428 3.19334857 5 6 C4.83073547 9.02492102 4.38667668 11.99251474 4 15 C-0.95 15 -5.9 15 -11 15 C-10.67 15.66 -10.34 16.32 -10 17 C-8.33388095 17.042721 -6.66617115 17.04063832 -5 17 C-4.67 16.67 -4.34 16.34 -4 16 C-1.66702567 15.95907063 0.66705225 15.95758277 3 16 C2.69095593 18.88441135 1.98382135 20.0176954 0 22.1875 C-3.87249357 24.52713153 -7.48094185 25.24252548 -12 25 C-15.29070428 23.76971855 -15.9687096 23.04693561 -18 20 C-19.01775491 13.23074643 -18.0245402 8.47784639 -14 3 C-9.736356 -0.88100928 -5.53046429 -0.85579564 0 0 Z M-9 7 C-9 7.66 -9 8.32 -9 9 C-7.02 9 -5.04 9 -3 9 C-3 8.01 -3 7.02 -3 6 C-6.7763932 5.7018576 -6.7763932 5.7018576 -9 7 Z " fill="#000000" transform="translate(50,208)"/>
<path d="M0 0 C1.81640625 1.33984375 1.81640625 1.33984375 3 3 C3.556566 8.34303359 2.49124624 13.30741454 1.4375 18.546875 C0.9122132 21.07692776 0.9122132 21.07692776 1 24 C0.443125 23.98839844 -0.11375 23.97679687 -0.6875 23.96484375 C-4.67825532 23.91765576 -8.38329466 24.01743629 -12.3125 24.75 C-16 25 -16 25 -18.5625 23.5 C-20 21 -20 21 -20 17.5 C-18.94526076 13.80841266 -17.94472442 12.37477776 -15 10 C-15.66 9.67 -16.32 9.34 -17 9 C-16.73309994 5.79719931 -16.16670984 4.2056088 -14.125 1.6875 C-9.60156885 -0.75515282 -5.04676819 -0.86716915 0 0 Z M-9 6 C-9.33 6.99 -9.66 7.98 -10 9 C-8.02 8.67 -6.04 8.34 -4 8 C-4 7.34 -4 6.68 -4 6 C-5.65 6 -7.3 6 -9 6 Z M-12 15 C-12.33 15.99 -12.66 16.98 -13 18 C-12.01 18.33 -11.02 18.66 -10 19 C-7.76975869 17.76486718 -7.76975869 17.76486718 -6 16 C-6 15.34 -6 14.68 -6 14 C-9.05270463 13.84188612 -9.05270463 13.84188612 -12 15 Z " fill="#000000" transform="translate(178,208)"/>
<path d="M0 0 C1.2684375 -0.02513672 1.2684375 -0.02513672 2.5625 -0.05078125 C5.51500566 0.38925565 6.85242709 1.26559457 9 3.3125 C10.68268168 8.36054504 10.56212419 12.63333946 8.4375 17.5 C6.03043326 21.86492736 3.60465327 23.43942071 -1 25.3125 C-6.01154586 25.91734174 -8.97272616 25.39218 -13 22.3125 C-14.87394236 18.56461529 -14.53535689 14.39310917 -14 10.3125 C-12.44300163 6.53833596 -10.61642775 3.35502798 -7.140625 1.11328125 C-4.64790601 0.18078601 -2.65842962 0.01215745 0 0 Z M-4.75 7.3125 C-6.57188743 10.22751989 -6.75343195 12.92218934 -7 16.3125 C-6.67 16.9725 -6.34 17.6325 -6 18.3125 C-3.62625139 18.64675735 -3.62625139 18.64675735 -1 18.3125 C0.98009206 16.81348982 0.98009206 16.81348982 2 14.3125 C2.25063732 10.64535151 2.25063732 10.64535151 2 7.3125 C-1.46434833 6.19855318 -1.46434833 6.19855318 -4.75 7.3125 Z " fill="#000000" transform="translate(106,207.6875)"/>
<path d="M0 0 C2.93902349 -0.13481759 5.87189559 -0.23399416 8.8125 -0.3125 C10.06256836 -0.3753418 10.06256836 -0.3753418 11.33789062 -0.43945312 C13.65327349 -0.48594676 15.72901604 -0.45665748 18 0 C20.1171875 2.15234375 20.1171875 2.15234375 21 5 C20.92578125 7.8671875 20.92578125 7.8671875 20.3125 10.875 C20.10496094 11.91914063 19.89742187 12.96328125 19.68359375 14.0390625 C18.90529062 17.4102269 18.0489447 20.70331667 17 24 C14.69 24 12.38 24 10 24 C10.61726196 18.32644329 11.27945952 12.66138945 12 7 C10.35 7 8.7 7 7 7 C5.68 12.61 4.36 18.22 3 24 C0.69 24 -1.62 24 -4 24 C-3.28621973 15.86290495 -1.67226118 7.98268072 0 0 Z " fill="#000000" transform="translate(233,208)"/>
<path d="M0 0 C2.64 0 5.28 0 8 0 C7.35575667 3.25031727 6.70932737 6.50019606 6.0625 9.75 C5.88009766 10.67039063 5.69769531 11.59078125 5.50976562 12.5390625 C5.33251953 13.42851562 5.15527344 14.31796875 4.97265625 15.234375 C4.81031494 16.05131836 4.64797363 16.86826172 4.48071289 17.70996094 C4.03730797 19.82227083 3.53920019 21.910337 3 24 C0.69 24 -1.62 24 -4 24 C-3.52087184 15.75569133 -2.02214499 7.99955473 0 0 Z " fill="#000000" transform="translate(222,208)"/>
<path d="M0 0 C2.64 0 5.28 0 8 0 C7.35755277 3.43814183 6.71046074 6.87539335 6.0625 10.3125 C5.88009766 11.28896484 5.69769531 12.26542969 5.50976562 13.27148438 C5.33251953 14.20927734 5.15527344 15.14707031 4.97265625 16.11328125 C4.81031494 16.97735596 4.64797363 17.84143066 4.48071289 18.73168945 C4 21 4 21 3 24 C0.69 24 -1.62 24 -4 24 C-3.4533512 15.81911794 -1.82876132 7.98214061 0 0 Z " fill="#000000" transform="translate(59,208)"/>
<path d="M0 0 C3.625 0.375 3.625 0.375 7 1 C6.67 2.98 6.34 4.96 6 7 C2.625 7.625 2.625 7.625 -1 8 C-1.66 7.34 -2.32 6.68 -3 6 C-2.63318342 3.06546739 -2.13562754 2.13562754 0 0 Z " fill="#EBEBEB" transform="translate(131,121)"/>
<path d="M0 0 C2.31 0 4.62 0 7 0 C6.67 2.31 6.34 4.62 6 7 C3.69 7 1.38 7 -1 7 C-0.67 4.69 -0.34 2.38 0 0 Z " fill="#000000" transform="translate(224,200)"/>
<path d="M0 0 C2.31 0 4.62 0 7 0 C6.67 2.31 6.34 4.62 6 7 C3.69 7 1.38 7 -1 7 C-0.67 4.69 -0.34 2.38 0 0 Z " fill="#000000" transform="translate(61,200)"/>
<path d="M0 0 C0.66 0.33 1.32 0.66 2 1 C-1.16952847 4.26008643 -4.39937989 7.22237877 -8 10 C-8.66 9.67 -9.32 9.34 -10 9 C-6.7 6.03 -3.4 3.06 0 0 Z " fill="#FDDADE" transform="translate(84,95)"/>
<path d="M0 0 C5.21979128 -0.1799928 9.07262981 0.02905192 14 2 C11.49923002 3.62433191 10.41017471 4.07333427 7.421875 3.5390625 C6.54015625 3.23742187 5.6584375 2.93578125 4.75 2.625 C3.85796875 2.32851562 2.9659375 2.03203125 2.046875 1.7265625 C1.37140625 1.48679687 0.6959375 1.24703125 0 1 C0 0.67 0 0.34 0 0 Z " fill="#D8394E" transform="translate(158,83)"/>
<path d="M0 0 C0.66 0.33 1.32 0.66 2 1 C-2.30769231 5.92307692 -2.30769231 5.92307692 -5.8125 6.3125 C-6.8953125 6.1578125 -6.8953125 6.1578125 -8 6 C-5.38485683 3.87961365 -2.80362384 1.86908256 0 0 Z " fill="#D53847" transform="translate(178,156)"/>
<path d="M0 0 C0.33 0.66 0.66 1.32 1 2 C-0.70625501 4.78388975 -1.47626739 5.85384206 -4.6875 6.75 C-5.8321875 6.87375 -5.8321875 6.87375 -7 7 C-4.66666667 4.66666667 -2.33333333 2.33333333 0 0 Z " fill="#D33042" transform="translate(187,149)"/>
<path d="M0 0 C2.97 0 5.94 0 9 0 C5.39338934 1.80330533 2.91606575 2.46599103 -1 3 C-0.67 2.01 -0.34 1.02 0 0 Z " fill="#D72E41" transform="translate(98,85)"/>
</svg>
